G04 PROTEUS GERBER X2 FILE*
%TF.GenerationSoftware,Labcenter,Proteus,8.17-SP2-Build37159*%
%TF.CreationDate,2024-06-14T20:57:10+00:00*%
%TF.FileFunction,Copper,L2,Bot*%
%TF.FilePolarity,Positive*%
%TF.Part,Single*%
%TF.SameCoordinates,{55591e3b-a6ba-419d-b1af-bbe9e4acfd0b}*%
%FSLAX45Y45*%
%MOMM*%
G01*
%TA.AperFunction,Conductor*%
%ADD12C,0.762000*%
%ADD13C,0.254000*%
%TA.AperFunction,ComponentPad*%
%ADD10C,2.032000*%
%TA.AperFunction,Profile*%
%ADD11C,0.203200*%
%TD.AperFunction*%
%TA.AperFunction,Conductor*%
G36*
X+2832964Y+2982803D02*
X+2869052Y+2971597D01*
X+2901749Y+2953848D01*
X+2930295Y+2930295D01*
X+2953848Y+2901749D01*
X+2971597Y+2869052D01*
X+2982803Y+2832964D01*
X+2987040Y+2790940D01*
X+2987040Y-2790940D01*
X+2982803Y-2832964D01*
X+2971597Y-2869052D01*
X+2953848Y-2901749D01*
X+2930295Y-2930295D01*
X+2901749Y-2953848D01*
X+2869052Y-2971597D01*
X+2832964Y-2982803D01*
X+2790940Y-2987040D01*
X-2790940Y-2987040D01*
X-2832964Y-2982803D01*
X-2869052Y-2971597D01*
X-2901749Y-2953848D01*
X-2930295Y-2930295D01*
X-2953848Y-2901749D01*
X-2971597Y-2869052D01*
X-2982803Y-2832964D01*
X-2987040Y-2790940D01*
X-2987040Y+2790940D01*
X-2982803Y+2832964D01*
X-2971597Y+2869052D01*
X-2953848Y+2901749D01*
X-2930295Y+2930295D01*
X-2901749Y+2953848D01*
X-2869052Y+2971597D01*
X-2832964Y+2982803D01*
X-2790940Y+2987040D01*
X+2790940Y+2987040D01*
X+2832964Y+2982803D01*
G37*
%TD.AperFunction*%
%LPC*%
G36*
X+2802710Y-2606666D02*
X+2847557Y-2613140D01*
X+2898855Y-2637107D01*
X+2943796Y-2678866D01*
X+2975336Y-2741497D01*
X+2982529Y-2794000D01*
X+2975336Y-2846503D01*
X+2943796Y-2909134D01*
X+2930214Y-2921755D01*
X+2898855Y-2950893D01*
X+2890177Y-2954948D01*
X+2847557Y-2974860D01*
X+2794000Y-2982591D01*
X+2785290Y-2981334D01*
X+2740443Y-2974860D01*
X+2689145Y-2950893D01*
X+2644204Y-2909134D01*
X+2612664Y-2846503D01*
X+2605471Y-2794000D01*
X+2612664Y-2741497D01*
X+2644204Y-2678866D01*
X+2657786Y-2666245D01*
X+2689145Y-2637107D01*
X+2697823Y-2633052D01*
X+2740443Y-2613140D01*
X+2794000Y-2605409D01*
X+2802710Y-2606666D01*
G37*
G36*
X-2785290Y-2606666D02*
X-2740443Y-2613140D01*
X-2689145Y-2637107D01*
X-2644204Y-2678866D01*
X-2612664Y-2741497D01*
X-2605471Y-2794000D01*
X-2612664Y-2846503D01*
X-2644204Y-2909134D01*
X-2657786Y-2921755D01*
X-2689145Y-2950893D01*
X-2697823Y-2954948D01*
X-2740443Y-2974860D01*
X-2794000Y-2982591D01*
X-2802710Y-2981334D01*
X-2847557Y-2974860D01*
X-2898855Y-2950893D01*
X-2943796Y-2909134D01*
X-2975336Y-2846503D01*
X-2982529Y-2794000D01*
X-2975336Y-2741497D01*
X-2943796Y-2678866D01*
X-2930214Y-2666245D01*
X-2898855Y-2637107D01*
X-2890177Y-2633052D01*
X-2847557Y-2613140D01*
X-2794000Y-2605409D01*
X-2785290Y-2606666D01*
G37*
G36*
X-2785290Y+2981334D02*
X-2740443Y+2974860D01*
X-2689145Y+2950893D01*
X-2644204Y+2909134D01*
X-2612664Y+2846503D01*
X-2605471Y+2794000D01*
X-2612664Y+2741497D01*
X-2644204Y+2678866D01*
X-2657786Y+2666245D01*
X-2689145Y+2637107D01*
X-2697823Y+2633052D01*
X-2740443Y+2613140D01*
X-2794000Y+2605409D01*
X-2802710Y+2606666D01*
X-2847557Y+2613140D01*
X-2898855Y+2637107D01*
X-2943796Y+2678866D01*
X-2975336Y+2741497D01*
X-2982529Y+2794000D01*
X-2975336Y+2846503D01*
X-2943796Y+2909134D01*
X-2930214Y+2921755D01*
X-2898855Y+2950893D01*
X-2890177Y+2954948D01*
X-2847557Y+2974860D01*
X-2794000Y+2982591D01*
X-2785290Y+2981334D01*
G37*
G36*
X+2802710Y+2981334D02*
X+2847557Y+2974860D01*
X+2898855Y+2950893D01*
X+2943796Y+2909134D01*
X+2975336Y+2846503D01*
X+2982529Y+2794000D01*
X+2975336Y+2741497D01*
X+2943796Y+2678866D01*
X+2930214Y+2666245D01*
X+2898855Y+2637107D01*
X+2890177Y+2633052D01*
X+2847557Y+2613140D01*
X+2794000Y+2605409D01*
X+2785290Y+2606666D01*
X+2740443Y+2613140D01*
X+2689145Y+2637107D01*
X+2644204Y+2678866D01*
X+2612664Y+2741497D01*
X+2605471Y+2794000D01*
X+2612664Y+2846503D01*
X+2644204Y+2909134D01*
X+2657786Y+2921755D01*
X+2689145Y+2950893D01*
X+2697823Y+2954948D01*
X+2740443Y+2974860D01*
X+2794000Y+2982591D01*
X+2802710Y+2981334D01*
G37*
G36*
X+76740Y+2375440D02*
X+99059Y+2353121D01*
X+99059Y+1515299D01*
X-114301Y+1301939D01*
X-114301Y+1212135D01*
X-183436Y+1143000D01*
X-114301Y+1073865D01*
X-114301Y+984061D01*
X+234620Y+635140D01*
X+234620Y-2599828D01*
X-149123Y-2983571D01*
X-2189882Y-2983571D01*
X-2772813Y-2400640D01*
X-2772813Y-1395053D01*
X-2552699Y-1174939D01*
X-2552699Y-1085135D01*
X-2470865Y-1003301D01*
X-2355135Y-1003301D01*
X-2273301Y-1085135D01*
X-2273301Y-1200865D01*
X-2355135Y-1282699D01*
X-2444939Y-1282699D01*
X-2620415Y-1458175D01*
X-2620415Y-2337518D01*
X-2126760Y-2831173D01*
X-212245Y-2831173D01*
X+82222Y-2536706D01*
X+82222Y+572018D01*
X-114301Y+768541D01*
X-114301Y+704135D01*
X-183436Y+635000D01*
X-114301Y+565865D01*
X-114301Y+450135D01*
X-183436Y+381000D01*
X-114301Y+311865D01*
X-114301Y+196135D01*
X-183436Y+127000D01*
X-114301Y+57865D01*
X-114301Y-57865D01*
X-183436Y-127000D01*
X-114301Y-196135D01*
X-114301Y-311865D01*
X-183436Y-381000D01*
X-114301Y-450135D01*
X-114301Y-565865D01*
X-183436Y-635000D01*
X-114301Y-704135D01*
X-114301Y-819865D01*
X-183436Y-889000D01*
X-114301Y-958135D01*
X-114301Y-1073865D01*
X-183436Y-1143000D01*
X-114301Y-1212135D01*
X-114301Y-1327865D01*
X-183436Y-1397000D01*
X-114301Y-1466135D01*
X-114301Y-1581865D01*
X-183436Y-1651000D01*
X-114301Y-1720135D01*
X-114301Y-1835865D01*
X-183436Y-1905000D01*
X-114301Y-1974135D01*
X-114301Y-2089865D01*
X-183436Y-2159000D01*
X-114301Y-2228135D01*
X-114301Y-2343865D01*
X-174792Y-2404356D01*
X-174792Y-2640235D01*
X-305985Y-2771428D01*
X-1346468Y-2771428D01*
X-1565197Y-2552699D01*
X-1581865Y-2552699D01*
X-1663699Y-2470865D01*
X-1663699Y-2381062D01*
X-1825562Y-2219199D01*
X-2291635Y-2219199D01*
X-2355135Y-2282699D01*
X-2470865Y-2282699D01*
X-2552699Y-2200865D01*
X-2552699Y-2085135D01*
X-2470865Y-2003301D01*
X-2355135Y-2003301D01*
X-2291635Y-2066802D01*
X-1762438Y-2066802D01*
X-1555939Y-2273301D01*
X-1466135Y-2273301D01*
X-1384301Y-2355135D01*
X-1384301Y-2470865D01*
X-1407906Y-2494470D01*
X-1283346Y-2619030D01*
X-369107Y-2619030D01*
X-327190Y-2577113D01*
X-327190Y-2410374D01*
X-393699Y-2343865D01*
X-393699Y-2228135D01*
X-324564Y-2159000D01*
X-393699Y-2089865D01*
X-393699Y-1974135D01*
X-324564Y-1905000D01*
X-393699Y-1835865D01*
X-393699Y-1720135D01*
X-324564Y-1651000D01*
X-393699Y-1581865D01*
X-393699Y-1466135D01*
X-324564Y-1397000D01*
X-393699Y-1327865D01*
X-393699Y-1212135D01*
X-324564Y-1143000D01*
X-393699Y-1073865D01*
X-393699Y-958135D01*
X-324564Y-889000D01*
X-393699Y-819865D01*
X-393699Y-704135D01*
X-324564Y-635000D01*
X-393699Y-565865D01*
X-393699Y-450135D01*
X-324564Y-381000D01*
X-393699Y-311865D01*
X-393699Y-196135D01*
X-324564Y-127000D01*
X-393699Y-57865D01*
X-393699Y+57865D01*
X-324564Y+127000D01*
X-393699Y+196135D01*
X-393699Y+311865D01*
X-324564Y+381000D01*
X-393699Y+450135D01*
X-393699Y+565865D01*
X-324564Y+635000D01*
X-393699Y+704135D01*
X-393699Y+819865D01*
X-324564Y+889000D01*
X-393699Y+958135D01*
X-393699Y+1073865D01*
X-324564Y+1143000D01*
X-393699Y+1212135D01*
X-393699Y+1327865D01*
X-324564Y+1397000D01*
X-393699Y+1466135D01*
X-393699Y+1581865D01*
X-324564Y+1651000D01*
X-393699Y+1720135D01*
X-393699Y+1835865D01*
X-324564Y+1905000D01*
X-393699Y+1974135D01*
X-393699Y+2089865D01*
X-324564Y+2159000D01*
X-375365Y+2209801D01*
X-640635Y+2209801D01*
X-704135Y+2146301D01*
X-819865Y+2146301D01*
X-901699Y+2228135D01*
X-901699Y+2343865D01*
X-819865Y+2425699D01*
X-704135Y+2425699D01*
X-640635Y+2362199D01*
X-375365Y+2362199D01*
X-311865Y+2425699D01*
X-196135Y+2425699D01*
X-114301Y+2343865D01*
X-114301Y+2228135D01*
X-183436Y+2159000D01*
X-114301Y+2089865D01*
X-114301Y+1974135D01*
X-183436Y+1905000D01*
X-114301Y+1835865D01*
X-114301Y+1720135D01*
X-183436Y+1651000D01*
X-114301Y+1581865D01*
X-114301Y+1517459D01*
X-53339Y+1578421D01*
X-53339Y+2289999D01*
X-216019Y+2452679D01*
X-2550054Y+2452679D01*
X-2602281Y+2400452D01*
X-2602281Y+1193576D01*
X-2390635Y+981929D01*
X-2343865Y+1028699D01*
X-2228135Y+1028699D01*
X-2146301Y+946865D01*
X-2146301Y+831135D01*
X-2228135Y+749301D01*
X-2317939Y+749301D01*
X-2524761Y+542479D01*
X-2524761Y+212803D01*
X-2470865Y+266699D01*
X-2355135Y+266699D01*
X-2291635Y+203199D01*
X-2190561Y+203199D01*
X-1536699Y+857061D01*
X-1536699Y+920939D01*
X-1854199Y+1238439D01*
X-1854199Y+1656635D01*
X-1917699Y+1720135D01*
X-1917699Y+1835865D01*
X-1854199Y+1899365D01*
X-1854199Y+2164635D01*
X-1899365Y+2209801D01*
X-2081719Y+2209801D01*
X-2209801Y+2081719D01*
X-2209801Y+2026365D01*
X-2146301Y+1962865D01*
X-2146301Y+1847135D01*
X-2228135Y+1765301D01*
X-2343865Y+1765301D01*
X-2425699Y+1847135D01*
X-2425699Y+1962865D01*
X-2362199Y+2026365D01*
X-2362199Y+2144841D01*
X-2144841Y+2362199D01*
X-1899365Y+2362199D01*
X-1835865Y+2425699D01*
X-1720135Y+2425699D01*
X-1638301Y+2343865D01*
X-1638301Y+2228135D01*
X-1701801Y+2164635D01*
X-1701801Y+1899365D01*
X-1638301Y+1835865D01*
X-1638301Y+1720135D01*
X-1701801Y+1656635D01*
X-1701801Y+1301561D01*
X-1428939Y+1028699D01*
X-1339135Y+1028699D01*
X-1270000Y+959564D01*
X-1200865Y+1028699D01*
X-1085135Y+1028699D01*
X-1003301Y+946865D01*
X-1003301Y+831135D01*
X-1085135Y+749301D01*
X-1200865Y+749301D01*
X-1270000Y+818436D01*
X-1339135Y+749301D01*
X-1428939Y+749301D01*
X-2127439Y+50801D01*
X-2291635Y+50801D01*
X-2355135Y-12699D01*
X-2470865Y-12699D01*
X-2524761Y+41197D01*
X-2524761Y-153479D01*
X-2444939Y-233301D01*
X-2355135Y-233301D01*
X-2273301Y-315135D01*
X-2273301Y-430865D01*
X-2355135Y-512699D01*
X-2470865Y-512699D01*
X-2552699Y-430865D01*
X-2552699Y-341061D01*
X-2677159Y-216601D01*
X-2677159Y+605601D01*
X-2453493Y+829267D01*
X-2459345Y+835120D01*
X-2754679Y+1130454D01*
X-2754679Y+2463574D01*
X-2613176Y+2605077D01*
X-152897Y+2605077D01*
X+76740Y+2375440D01*
G37*
G36*
X+2425699Y+2343865D02*
X+2425699Y+2228135D01*
X+2356564Y+2159000D01*
X+2425699Y+2089865D01*
X+2425699Y+1974135D01*
X+2356564Y+1905000D01*
X+2425699Y+1835865D01*
X+2425699Y+1720135D01*
X+2356564Y+1651000D01*
X+2425699Y+1581865D01*
X+2425699Y+1466135D01*
X+2356564Y+1397000D01*
X+2425699Y+1327865D01*
X+2425699Y+1212135D01*
X+2356564Y+1143000D01*
X+2425699Y+1073865D01*
X+2425699Y+958135D01*
X+2356564Y+889000D01*
X+2425699Y+819865D01*
X+2425699Y+704135D01*
X+2356564Y+635000D01*
X+2425699Y+565865D01*
X+2425699Y+450135D01*
X+2356564Y+381000D01*
X+2425699Y+311865D01*
X+2425699Y+196135D01*
X+2356564Y+127000D01*
X+2425699Y+57865D01*
X+2425699Y-57865D01*
X+2356564Y-127000D01*
X+2425699Y-196135D01*
X+2425699Y-311865D01*
X+2356564Y-381000D01*
X+2425699Y-450135D01*
X+2425699Y-565865D01*
X+2356564Y-635000D01*
X+2425699Y-704135D01*
X+2425699Y-819865D01*
X+2356564Y-889000D01*
X+2425699Y-958135D01*
X+2425699Y-1073865D01*
X+2356564Y-1143000D01*
X+2425699Y-1212135D01*
X+2425699Y-1327865D01*
X+2356564Y-1397000D01*
X+2425699Y-1466135D01*
X+2425699Y-1581865D01*
X+2356564Y-1651000D01*
X+2425699Y-1720135D01*
X+2425699Y-1835865D01*
X+2356564Y-1905000D01*
X+2425699Y-1974135D01*
X+2425699Y-2089865D01*
X+2356564Y-2159000D01*
X+2425699Y-2228135D01*
X+2425699Y-2343865D01*
X+2343865Y-2425699D01*
X+2228135Y-2425699D01*
X+2146301Y-2343865D01*
X+2146301Y-2228135D01*
X+2215436Y-2159000D01*
X+2146301Y-2089865D01*
X+2146301Y-1974135D01*
X+2215436Y-1905000D01*
X+2146301Y-1835865D01*
X+2146301Y-1720135D01*
X+2215436Y-1651000D01*
X+2146301Y-1581865D01*
X+2146301Y-1466135D01*
X+2215436Y-1397000D01*
X+2146301Y-1327865D01*
X+2146301Y-1212135D01*
X+2215436Y-1143000D01*
X+2146301Y-1073865D01*
X+2146301Y-958135D01*
X+2215436Y-889000D01*
X+2146301Y-819865D01*
X+2146301Y-704135D01*
X+2215436Y-635000D01*
X+2146301Y-565865D01*
X+2146301Y-450135D01*
X+2215436Y-381000D01*
X+2146301Y-311865D01*
X+2146301Y-196135D01*
X+2215436Y-127000D01*
X+2146301Y-57865D01*
X+2146301Y+57865D01*
X+2215436Y+127000D01*
X+2146301Y+196135D01*
X+2146301Y+311865D01*
X+2215436Y+381000D01*
X+2146301Y+450135D01*
X+2146301Y+565865D01*
X+2215436Y+635000D01*
X+2146301Y+704135D01*
X+2146301Y+819865D01*
X+2215436Y+889000D01*
X+2146301Y+958135D01*
X+2146301Y+1073865D01*
X+2215436Y+1143000D01*
X+2146301Y+1212135D01*
X+2146301Y+1327865D01*
X+2215436Y+1397000D01*
X+2146301Y+1466135D01*
X+2146301Y+1581865D01*
X+2215436Y+1651000D01*
X+2146301Y+1720135D01*
X+2146301Y+1835865D01*
X+2215436Y+1905000D01*
X+2146301Y+1974135D01*
X+2146301Y+2089865D01*
X+2215436Y+2159000D01*
X+2146301Y+2228135D01*
X+2146301Y+2343865D01*
X+2228135Y+2425699D01*
X+2343865Y+2425699D01*
X+2425699Y+2343865D01*
G37*
G36*
X-901699Y+1720135D02*
X-901699Y+1835865D01*
X-819865Y+1917699D01*
X-704135Y+1917699D01*
X-622301Y+1835865D01*
X-622301Y+1720135D01*
X-704135Y+1638301D01*
X-819865Y+1638301D01*
X-901699Y+1720135D01*
G37*
G36*
X-2552699Y-1700865D02*
X-2552699Y-1585135D01*
X-2470865Y-1503301D01*
X-2355135Y-1503301D01*
X-2273301Y-1585135D01*
X-2273301Y-1700865D01*
X-2355135Y-1782699D01*
X-2470865Y-1782699D01*
X-2552699Y-1700865D01*
G37*
G36*
X-1163699Y-2470865D02*
X-1163699Y-2355135D01*
X-1081865Y-2273301D01*
X-966135Y-2273301D01*
X-884301Y-2355135D01*
X-884301Y-2470865D01*
X-966135Y-2552699D01*
X-1081865Y-2552699D01*
X-1163699Y-2470865D01*
G37*
%LPD*%
D12*
X-1524000Y-2413000D02*
X-1524000Y-2486136D01*
X-1314907Y-2695229D01*
X-337546Y-2695229D01*
X-250991Y-2608674D01*
X-250991Y-2289009D01*
X-254000Y-2286000D01*
X-2413000Y-2143000D02*
X-1794000Y-2143000D01*
X-1524000Y-2413000D01*
X-1778000Y+1778000D02*
X-1778000Y+1270000D01*
X-1397000Y+889000D01*
X-2159000Y+127000D01*
X-2413000Y+127000D01*
X-762000Y+2286000D02*
X-254000Y+2286000D01*
X-1778000Y+2286000D02*
X-2113280Y+2286000D01*
X-2286000Y+2113280D01*
X-2286000Y+1905000D01*
X-1778000Y+2286000D02*
X-1778000Y+1778000D01*
X-2413000Y-373000D02*
X-2600960Y-185040D01*
X-2600960Y+574040D01*
X-2286000Y+889000D01*
X-2413000Y-1143000D02*
X-2696614Y-1426614D01*
X-2696614Y-2210621D01*
X-2696614Y-2369079D01*
X-2158321Y-2907372D01*
X-180684Y-2907372D01*
X+158421Y-2568267D01*
X+158421Y+603579D01*
X-254000Y+1016000D01*
X-2286000Y+889000D02*
X-2405465Y+889000D01*
X-2678480Y+1162015D01*
X-2678480Y+2432013D01*
X-2581615Y+2528878D01*
X-184458Y+2528878D01*
X+22860Y+2321560D01*
X+22860Y+1546860D01*
X-254000Y+1270000D01*
D13*
X+2832964Y+2982803D02*
X+2869052Y+2971597D01*
X+2901749Y+2953848D01*
X+2930295Y+2930295D01*
X+2953848Y+2901749D01*
X+2971597Y+2869052D01*
X+2982803Y+2832964D01*
X+2987040Y+2790940D01*
X+2987040Y-2790940D01*
X+2982803Y-2832964D01*
X+2971597Y-2869052D01*
X+2953848Y-2901749D01*
X+2930295Y-2930295D01*
X+2901749Y-2953848D01*
X+2869052Y-2971597D01*
X+2832964Y-2982803D01*
X+2790940Y-2987040D01*
X-2790940Y-2987040D01*
X-2832964Y-2982803D01*
X-2869052Y-2971597D01*
X-2901749Y-2953848D01*
X-2930295Y-2930295D01*
X-2953848Y-2901749D01*
X-2971597Y-2869052D01*
X-2982803Y-2832964D01*
X-2987040Y-2790940D01*
X-2987040Y+2790940D01*
X-2982803Y+2832964D01*
X-2971597Y+2869052D01*
X-2953848Y+2901749D01*
X-2930295Y+2930295D01*
X-2901749Y+2953848D01*
X-2869052Y+2971597D01*
X-2832964Y+2982803D01*
X-2790940Y+2987040D01*
X+2790940Y+2987040D01*
X+2832964Y+2982803D01*
X+2802710Y-2606666D02*
X+2847557Y-2613140D01*
X+2898855Y-2637107D01*
X+2943796Y-2678866D01*
X+2975336Y-2741497D01*
X+2982529Y-2794000D01*
X+2975336Y-2846503D01*
X+2943796Y-2909134D01*
X+2930214Y-2921755D01*
X+2898855Y-2950893D01*
X+2890177Y-2954948D01*
X+2847557Y-2974860D01*
X+2794000Y-2982591D01*
X+2785290Y-2981334D01*
X+2740443Y-2974860D01*
X+2689145Y-2950893D01*
X+2644204Y-2909134D01*
X+2612664Y-2846503D01*
X+2605471Y-2794000D01*
X+2612664Y-2741497D01*
X+2644204Y-2678866D01*
X+2657786Y-2666245D01*
X+2689145Y-2637107D01*
X+2697823Y-2633052D01*
X+2740443Y-2613140D01*
X+2794000Y-2605409D01*
X+2802710Y-2606666D01*
X-2785290Y-2606666D02*
X-2740443Y-2613140D01*
X-2689145Y-2637107D01*
X-2644204Y-2678866D01*
X-2612664Y-2741497D01*
X-2605471Y-2794000D01*
X-2612664Y-2846503D01*
X-2644204Y-2909134D01*
X-2657786Y-2921755D01*
X-2689145Y-2950893D01*
X-2697823Y-2954948D01*
X-2740443Y-2974860D01*
X-2794000Y-2982591D01*
X-2802710Y-2981334D01*
X-2847557Y-2974860D01*
X-2898855Y-2950893D01*
X-2943796Y-2909134D01*
X-2975336Y-2846503D01*
X-2982529Y-2794000D01*
X-2975336Y-2741497D01*
X-2943796Y-2678866D01*
X-2930214Y-2666245D01*
X-2898855Y-2637107D01*
X-2890177Y-2633052D01*
X-2847557Y-2613140D01*
X-2794000Y-2605409D01*
X-2785290Y-2606666D01*
X-2785290Y+2981334D02*
X-2740443Y+2974860D01*
X-2689145Y+2950893D01*
X-2644204Y+2909134D01*
X-2612664Y+2846503D01*
X-2605471Y+2794000D01*
X-2612664Y+2741497D01*
X-2644204Y+2678866D01*
X-2657786Y+2666245D01*
X-2689145Y+2637107D01*
X-2697823Y+2633052D01*
X-2740443Y+2613140D01*
X-2794000Y+2605409D01*
X-2802710Y+2606666D01*
X-2847557Y+2613140D01*
X-2898855Y+2637107D01*
X-2943796Y+2678866D01*
X-2975336Y+2741497D01*
X-2982529Y+2794000D01*
X-2975336Y+2846503D01*
X-2943796Y+2909134D01*
X-2930214Y+2921755D01*
X-2898855Y+2950893D01*
X-2890177Y+2954948D01*
X-2847557Y+2974860D01*
X-2794000Y+2982591D01*
X-2785290Y+2981334D01*
X+2802710Y+2981334D02*
X+2847557Y+2974860D01*
X+2898855Y+2950893D01*
X+2943796Y+2909134D01*
X+2975336Y+2846503D01*
X+2982529Y+2794000D01*
X+2975336Y+2741497D01*
X+2943796Y+2678866D01*
X+2930214Y+2666245D01*
X+2898855Y+2637107D01*
X+2890177Y+2633052D01*
X+2847557Y+2613140D01*
X+2794000Y+2605409D01*
X+2785290Y+2606666D01*
X+2740443Y+2613140D01*
X+2689145Y+2637107D01*
X+2644204Y+2678866D01*
X+2612664Y+2741497D01*
X+2605471Y+2794000D01*
X+2612664Y+2846503D01*
X+2644204Y+2909134D01*
X+2657786Y+2921755D01*
X+2689145Y+2950893D01*
X+2697823Y+2954948D01*
X+2740443Y+2974860D01*
X+2794000Y+2982591D01*
X+2802710Y+2981334D01*
X+76740Y+2375440D02*
X+99059Y+2353121D01*
X+99059Y+1515299D01*
X-114301Y+1301939D01*
X-114301Y+1212135D01*
X-183436Y+1143000D01*
X-114301Y+1073865D01*
X-114301Y+984061D01*
X+234620Y+635140D01*
X+234620Y-2599828D01*
X-149123Y-2983571D01*
X-2189882Y-2983571D01*
X-2772813Y-2400640D01*
X-2772813Y-1395053D01*
X-2552699Y-1174939D01*
X-2552699Y-1085135D01*
X-2470865Y-1003301D01*
X-2355135Y-1003301D01*
X-2273301Y-1085135D01*
X-2273301Y-1200865D01*
X-2355135Y-1282699D01*
X-2444939Y-1282699D01*
X-2620415Y-1458175D01*
X-2620415Y-2337518D01*
X-2126760Y-2831173D01*
X-212245Y-2831173D01*
X+82222Y-2536706D01*
X+82222Y+572018D01*
X-114301Y+768541D01*
X-114301Y+704135D01*
X-183436Y+635000D01*
X-114301Y+565865D01*
X-114301Y+450135D01*
X-183436Y+381000D01*
X-114301Y+311865D01*
X-114301Y+196135D01*
X-183436Y+127000D01*
X-114301Y+57865D01*
X-114301Y-57865D01*
X-183436Y-127000D01*
X-114301Y-196135D01*
X-114301Y-311865D01*
X-183436Y-381000D01*
X-114301Y-450135D01*
X-114301Y-565865D01*
X-183436Y-635000D01*
X-114301Y-704135D01*
X-114301Y-819865D01*
X-183436Y-889000D01*
X-114301Y-958135D01*
X-114301Y-1073865D01*
X-183436Y-1143000D01*
X-114301Y-1212135D01*
X-114301Y-1327865D01*
X-183436Y-1397000D01*
X-114301Y-1466135D01*
X-114301Y-1581865D01*
X-183436Y-1651000D01*
X-114301Y-1720135D01*
X-114301Y-1835865D01*
X-183436Y-1905000D01*
X-114301Y-1974135D01*
X-114301Y-2089865D01*
X-183436Y-2159000D01*
X-114301Y-2228135D01*
X-114301Y-2343865D01*
X-174792Y-2404356D01*
X-174792Y-2640235D01*
X-305985Y-2771428D01*
X-1346468Y-2771428D01*
X-1565197Y-2552699D01*
X-1581865Y-2552699D01*
X-1663699Y-2470865D01*
X-1663699Y-2381062D01*
X-1825562Y-2219199D01*
X-2291635Y-2219199D01*
X-2355135Y-2282699D01*
X-2470865Y-2282699D01*
X-2552699Y-2200865D01*
X-2552699Y-2085135D01*
X-2470865Y-2003301D01*
X-2355135Y-2003301D01*
X-2291635Y-2066802D01*
X-1762438Y-2066802D01*
X-1555939Y-2273301D01*
X-1466135Y-2273301D01*
X-1384301Y-2355135D01*
X-1384301Y-2470865D01*
X-1407906Y-2494470D01*
X-1283346Y-2619030D01*
X-369107Y-2619030D01*
X-327190Y-2577113D01*
X-327190Y-2410374D01*
X-393699Y-2343865D01*
X-393699Y-2228135D01*
X-324564Y-2159000D01*
X-393699Y-2089865D01*
X-393699Y-1974135D01*
X-324564Y-1905000D01*
X-393699Y-1835865D01*
X-393699Y-1720135D01*
X-324564Y-1651000D01*
X-393699Y-1581865D01*
X-393699Y-1466135D01*
X-324564Y-1397000D01*
X-393699Y-1327865D01*
X-393699Y-1212135D01*
X-324564Y-1143000D01*
X-393699Y-1073865D01*
X-393699Y-958135D01*
X-324564Y-889000D01*
X-393699Y-819865D01*
X-393699Y-704135D01*
X-324564Y-635000D01*
X-393699Y-565865D01*
X-393699Y-450135D01*
X-324564Y-381000D01*
X-393699Y-311865D01*
X-393699Y-196135D01*
X-324564Y-127000D01*
X-393699Y-57865D01*
X-393699Y+57865D01*
X-324564Y+127000D01*
X-393699Y+196135D01*
X-393699Y+311865D01*
X-324564Y+381000D01*
X-393699Y+450135D01*
X-393699Y+565865D01*
X-324564Y+635000D01*
X-393699Y+704135D01*
X-393699Y+819865D01*
X-324564Y+889000D01*
X-393699Y+958135D01*
X-393699Y+1073865D01*
X-324564Y+1143000D01*
X-393699Y+1212135D01*
X-393699Y+1327865D01*
X-324564Y+1397000D01*
X-393699Y+1466135D01*
X-393699Y+1581865D01*
X-324564Y+1651000D01*
X-393699Y+1720135D01*
X-393699Y+1835865D01*
X-324564Y+1905000D01*
X-393699Y+1974135D01*
X-393699Y+2089865D01*
X-324564Y+2159000D01*
X-375365Y+2209801D01*
X-640635Y+2209801D01*
X-704135Y+2146301D01*
X-819865Y+2146301D01*
X-901699Y+2228135D01*
X-901699Y+2343865D01*
X-819865Y+2425699D01*
X-704135Y+2425699D01*
X-640635Y+2362199D01*
X-375365Y+2362199D01*
X-311865Y+2425699D01*
X-196135Y+2425699D01*
X-114301Y+2343865D01*
X-114301Y+2228135D01*
X-183436Y+2159000D01*
X-114301Y+2089865D01*
X-114301Y+1974135D01*
X-183436Y+1905000D01*
X-114301Y+1835865D01*
X-114301Y+1720135D01*
X-183436Y+1651000D01*
X-114301Y+1581865D01*
X-114301Y+1517459D01*
X-53339Y+1578421D01*
X-53339Y+2289999D01*
X-216019Y+2452679D01*
X-2550054Y+2452679D01*
X-2602281Y+2400452D01*
X-2602281Y+1193576D01*
X-2390635Y+981929D01*
X-2343865Y+1028699D01*
X-2228135Y+1028699D01*
X-2146301Y+946865D01*
X-2146301Y+831135D01*
X-2228135Y+749301D01*
X-2317939Y+749301D01*
X-2524761Y+542479D01*
X-2524761Y+212803D01*
X-2470865Y+266699D01*
X-2355135Y+266699D01*
X-2291635Y+203199D01*
X-2190561Y+203199D01*
X-1536699Y+857061D01*
X-1536699Y+920939D01*
X-1854199Y+1238439D01*
X-1854199Y+1656635D01*
X-1917699Y+1720135D01*
X-1917699Y+1835865D01*
X-1854199Y+1899365D01*
X-1854199Y+2164635D01*
X-1899365Y+2209801D01*
X-2081719Y+2209801D01*
X-2209801Y+2081719D01*
X-2209801Y+2026365D01*
X-2146301Y+1962865D01*
X-2146301Y+1847135D01*
X-2228135Y+1765301D01*
X-2343865Y+1765301D01*
X-2425699Y+1847135D01*
X-2425699Y+1962865D01*
X-2362199Y+2026365D01*
X-2362199Y+2144841D01*
X-2144841Y+2362199D01*
X-1899365Y+2362199D01*
X-1835865Y+2425699D01*
X-1720135Y+2425699D01*
X-1638301Y+2343865D01*
X-1638301Y+2228135D01*
X-1701801Y+2164635D01*
X-1701801Y+1899365D01*
X-1638301Y+1835865D01*
X-1638301Y+1720135D01*
X-1701801Y+1656635D01*
X-1701801Y+1301561D01*
X-1428939Y+1028699D01*
X-1339135Y+1028699D01*
X-1270000Y+959564D01*
X-1200865Y+1028699D01*
X-1085135Y+1028699D01*
X-1003301Y+946865D01*
X-1003301Y+831135D01*
X-1085135Y+749301D01*
X-1200865Y+749301D01*
X-1270000Y+818436D01*
X-1339135Y+749301D01*
X-1428939Y+749301D01*
X-2127439Y+50801D01*
X-2291635Y+50801D01*
X-2355135Y-12699D01*
X-2470865Y-12699D01*
X-2524761Y+41197D01*
X-2524761Y-153479D01*
X-2444939Y-233301D01*
X-2355135Y-233301D01*
X-2273301Y-315135D01*
X-2273301Y-430865D01*
X-2355135Y-512699D01*
X-2470865Y-512699D01*
X-2552699Y-430865D01*
X-2552699Y-341061D01*
X-2677159Y-216601D01*
X-2677159Y+605601D01*
X-2453493Y+829267D01*
X-2459345Y+835120D01*
X-2754679Y+1130454D01*
X-2754679Y+2463574D01*
X-2613176Y+2605077D01*
X-152897Y+2605077D01*
X+76740Y+2375440D01*
X+2425699Y+2343865D02*
X+2425699Y+2228135D01*
X+2356564Y+2159000D01*
X+2425699Y+2089865D01*
X+2425699Y+1974135D01*
X+2356564Y+1905000D01*
X+2425699Y+1835865D01*
X+2425699Y+1720135D01*
X+2356564Y+1651000D01*
X+2425699Y+1581865D01*
X+2425699Y+1466135D01*
X+2356564Y+1397000D01*
X+2425699Y+1327865D01*
X+2425699Y+1212135D01*
X+2356564Y+1143000D01*
X+2425699Y+1073865D01*
X+2425699Y+958135D01*
X+2356564Y+889000D01*
X+2425699Y+819865D01*
X+2425699Y+704135D01*
X+2356564Y+635000D01*
X+2425699Y+565865D01*
X+2425699Y+450135D01*
X+2356564Y+381000D01*
X+2425699Y+311865D01*
X+2425699Y+196135D01*
X+2356564Y+127000D01*
X+2425699Y+57865D01*
X+2425699Y-57865D01*
X+2356564Y-127000D01*
X+2425699Y-196135D01*
X+2425699Y-311865D01*
X+2356564Y-381000D01*
X+2425699Y-450135D01*
X+2425699Y-565865D01*
X+2356564Y-635000D01*
X+2425699Y-704135D01*
X+2425699Y-819865D01*
X+2356564Y-889000D01*
X+2425699Y-958135D01*
X+2425699Y-1073865D01*
X+2356564Y-1143000D01*
X+2425699Y-1212135D01*
X+2425699Y-1327865D01*
X+2356564Y-1397000D01*
X+2425699Y-1466135D01*
X+2425699Y-1581865D01*
X+2356564Y-1651000D01*
X+2425699Y-1720135D01*
X+2425699Y-1835865D01*
X+2356564Y-1905000D01*
X+2425699Y-1974135D01*
X+2425699Y-2089865D01*
X+2356564Y-2159000D01*
X+2425699Y-2228135D01*
X+2425699Y-2343865D01*
X+2343865Y-2425699D01*
X+2228135Y-2425699D01*
X+2146301Y-2343865D01*
X+2146301Y-2228135D01*
X+2215436Y-2159000D01*
X+2146301Y-2089865D01*
X+2146301Y-1974135D01*
X+2215436Y-1905000D01*
X+2146301Y-1835865D01*
X+2146301Y-1720135D01*
X+2215436Y-1651000D01*
X+2146301Y-1581865D01*
X+2146301Y-1466135D01*
X+2215436Y-1397000D01*
X+2146301Y-1327865D01*
X+2146301Y-1212135D01*
X+2215436Y-1143000D01*
X+2146301Y-1073865D01*
X+2146301Y-958135D01*
X+2215436Y-889000D01*
X+2146301Y-819865D01*
X+2146301Y-704135D01*
X+2215436Y-635000D01*
X+2146301Y-565865D01*
X+2146301Y-450135D01*
X+2215436Y-381000D01*
X+2146301Y-311865D01*
X+2146301Y-196135D01*
X+2215436Y-127000D01*
X+2146301Y-57865D01*
X+2146301Y+57865D01*
X+2215436Y+127000D01*
X+2146301Y+196135D01*
X+2146301Y+311865D01*
X+2215436Y+381000D01*
X+2146301Y+450135D01*
X+2146301Y+565865D01*
X+2215436Y+635000D01*
X+2146301Y+704135D01*
X+2146301Y+819865D01*
X+2215436Y+889000D01*
X+2146301Y+958135D01*
X+2146301Y+1073865D01*
X+2215436Y+1143000D01*
X+2146301Y+1212135D01*
X+2146301Y+1327865D01*
X+2215436Y+1397000D01*
X+2146301Y+1466135D01*
X+2146301Y+1581865D01*
X+2215436Y+1651000D01*
X+2146301Y+1720135D01*
X+2146301Y+1835865D01*
X+2215436Y+1905000D01*
X+2146301Y+1974135D01*
X+2146301Y+2089865D01*
X+2215436Y+2159000D01*
X+2146301Y+2228135D01*
X+2146301Y+2343865D01*
X+2228135Y+2425699D01*
X+2343865Y+2425699D01*
X+2425699Y+2343865D01*
X-901699Y+1720135D02*
X-901699Y+1835865D01*
X-819865Y+1917699D01*
X-704135Y+1917699D01*
X-622301Y+1835865D01*
X-622301Y+1720135D01*
X-704135Y+1638301D01*
X-819865Y+1638301D01*
X-901699Y+1720135D01*
X-2552699Y-1700865D02*
X-2552699Y-1585135D01*
X-2470865Y-1503301D01*
X-2355135Y-1503301D01*
X-2273301Y-1585135D01*
X-2273301Y-1700865D01*
X-2355135Y-1782699D01*
X-2470865Y-1782699D01*
X-2552699Y-1700865D01*
X-1163699Y-2470865D02*
X-1163699Y-2355135D01*
X-1081865Y-2273301D01*
X-966135Y-2273301D01*
X-884301Y-2355135D01*
X-884301Y-2470865D01*
X-966135Y-2552699D01*
X-1081865Y-2552699D01*
X-1163699Y-2470865D01*
X-380999Y-1016000D02*
X-254000Y-1016000D01*
X-127001Y-1016000D02*
X-254000Y-1016000D01*
X-1016001Y+889000D02*
X-1143000Y+889000D01*
X-1143000Y+762001D02*
X-1143000Y+889000D01*
X-1143000Y+1015999D02*
X-1143000Y+889000D01*
X-888999Y+1778000D02*
X-762000Y+1778000D01*
X-635001Y+1778000D02*
X-762000Y+1778000D01*
X-762000Y+1651001D02*
X-762000Y+1778000D01*
X-762000Y+1904999D02*
X-762000Y+1778000D01*
X-2539999Y-1643000D02*
X-2413000Y-1643000D01*
X-2286001Y-1643000D02*
X-2413000Y-1643000D01*
X-2413000Y-1769999D02*
X-2413000Y-1643000D01*
X-2413000Y-1516001D02*
X-2413000Y-1643000D01*
X-1150999Y-2413000D02*
X-1024000Y-2413000D01*
X-897001Y-2413000D02*
X-1024000Y-2413000D01*
X-1024000Y-2539999D02*
X-1024000Y-2413000D01*
X-1024000Y-2286001D02*
X-1024000Y-2413000D01*
D10*
X-254000Y-2286000D03*
X-254000Y-2032000D03*
X-254000Y-1778000D03*
X-254000Y-1524000D03*
X-254000Y-1270000D03*
X-254000Y-1016000D03*
X-254000Y-762000D03*
X-254000Y-508000D03*
X-254000Y-254000D03*
X-254000Y+0D03*
X-254000Y+254000D03*
X-254000Y+508000D03*
X-254000Y+762000D03*
X-254000Y+1016000D03*
X-254000Y+1270000D03*
X-254000Y+1524000D03*
X-254000Y+1778000D03*
X-254000Y+2032000D03*
X-254000Y+2286000D03*
X+2286000Y-2286000D03*
X+2286000Y-2032000D03*
X+2286000Y-1778000D03*
X+2286000Y-1524000D03*
X+2286000Y-1270000D03*
X+2286000Y-1016000D03*
X+2286000Y-762000D03*
X+2286000Y-508000D03*
X+2286000Y-254000D03*
X+2286000Y+0D03*
X+2286000Y+254000D03*
X+2286000Y+508000D03*
X+2286000Y+762000D03*
X+2286000Y+1016000D03*
X+2286000Y+1270000D03*
X+2286000Y+1524000D03*
X+2286000Y+1778000D03*
X+2286000Y+2032000D03*
X+2286000Y+2286000D03*
X-2413000Y+127000D03*
X-2413000Y-373000D03*
X-1397000Y+889000D03*
X-1143000Y+889000D03*
X-1778000Y+2286000D03*
X-762000Y+2286000D03*
X-1778000Y+1778000D03*
X-762000Y+1778000D03*
X-2286000Y+889000D03*
X-2286000Y+1905000D03*
X-2413000Y-1143000D03*
X-2413000Y-1643000D03*
X-2413000Y-2143000D03*
X-1524000Y-2413000D03*
X-1024000Y-2413000D03*
D11*
X+2921000Y-2794000D02*
X+2920573Y-2783591D01*
X+2917101Y-2762772D01*
X+2909845Y-2741953D01*
X+2898017Y-2721134D01*
X+2879920Y-2700476D01*
X+2859101Y-2684955D01*
X+2838282Y-2674970D01*
X+2817463Y-2669186D01*
X+2796644Y-2667028D01*
X+2794000Y-2667000D01*
X+2667000Y-2794000D02*
X+2667427Y-2783591D01*
X+2670899Y-2762772D01*
X+2678155Y-2741953D01*
X+2689983Y-2721134D01*
X+2708080Y-2700476D01*
X+2728899Y-2684955D01*
X+2749718Y-2674970D01*
X+2770537Y-2669186D01*
X+2791356Y-2667028D01*
X+2794000Y-2667000D01*
X+2667000Y-2794000D02*
X+2667427Y-2804409D01*
X+2670899Y-2825228D01*
X+2678155Y-2846047D01*
X+2689983Y-2866866D01*
X+2708080Y-2887524D01*
X+2728899Y-2903045D01*
X+2749718Y-2913030D01*
X+2770537Y-2918814D01*
X+2791356Y-2920972D01*
X+2794000Y-2921000D01*
X+2921000Y-2794000D02*
X+2920573Y-2804409D01*
X+2917101Y-2825228D01*
X+2909845Y-2846047D01*
X+2898017Y-2866866D01*
X+2879920Y-2887524D01*
X+2859101Y-2903045D01*
X+2838282Y-2913030D01*
X+2817463Y-2918814D01*
X+2796644Y-2920972D01*
X+2794000Y-2921000D01*
X-2667000Y-2794000D02*
X-2667427Y-2783591D01*
X-2670899Y-2762772D01*
X-2678155Y-2741953D01*
X-2689983Y-2721134D01*
X-2708080Y-2700476D01*
X-2728899Y-2684955D01*
X-2749718Y-2674970D01*
X-2770537Y-2669186D01*
X-2791356Y-2667028D01*
X-2794000Y-2667000D01*
X-2921000Y-2794000D02*
X-2920573Y-2783591D01*
X-2917101Y-2762772D01*
X-2909845Y-2741953D01*
X-2898017Y-2721134D01*
X-2879920Y-2700476D01*
X-2859101Y-2684955D01*
X-2838282Y-2674970D01*
X-2817463Y-2669186D01*
X-2796644Y-2667028D01*
X-2794000Y-2667000D01*
X-2921000Y-2794000D02*
X-2920573Y-2804409D01*
X-2917101Y-2825228D01*
X-2909845Y-2846047D01*
X-2898017Y-2866866D01*
X-2879920Y-2887524D01*
X-2859101Y-2903045D01*
X-2838282Y-2913030D01*
X-2817463Y-2918814D01*
X-2796644Y-2920972D01*
X-2794000Y-2921000D01*
X-2667000Y-2794000D02*
X-2667427Y-2804409D01*
X-2670899Y-2825228D01*
X-2678155Y-2846047D01*
X-2689983Y-2866866D01*
X-2708080Y-2887524D01*
X-2728899Y-2903045D01*
X-2749718Y-2913030D01*
X-2770537Y-2918814D01*
X-2791356Y-2920972D01*
X-2794000Y-2921000D01*
X-2667000Y+2794000D02*
X-2667427Y+2804409D01*
X-2670899Y+2825228D01*
X-2678155Y+2846047D01*
X-2689983Y+2866866D01*
X-2708080Y+2887524D01*
X-2728899Y+2903045D01*
X-2749718Y+2913030D01*
X-2770537Y+2918814D01*
X-2791356Y+2920972D01*
X-2794000Y+2921000D01*
X-2921000Y+2794000D02*
X-2920573Y+2804409D01*
X-2917101Y+2825228D01*
X-2909845Y+2846047D01*
X-2898017Y+2866866D01*
X-2879920Y+2887524D01*
X-2859101Y+2903045D01*
X-2838282Y+2913030D01*
X-2817463Y+2918814D01*
X-2796644Y+2920972D01*
X-2794000Y+2921000D01*
X-2921000Y+2794000D02*
X-2920573Y+2783591D01*
X-2917101Y+2762772D01*
X-2909845Y+2741953D01*
X-2898017Y+2721134D01*
X-2879920Y+2700476D01*
X-2859101Y+2684955D01*
X-2838282Y+2674970D01*
X-2817463Y+2669186D01*
X-2796644Y+2667028D01*
X-2794000Y+2667000D01*
X-2667000Y+2794000D02*
X-2667427Y+2783591D01*
X-2670899Y+2762772D01*
X-2678155Y+2741953D01*
X-2689983Y+2721134D01*
X-2708080Y+2700476D01*
X-2728899Y+2684955D01*
X-2749718Y+2674970D01*
X-2770537Y+2669186D01*
X-2791356Y+2667028D01*
X-2794000Y+2667000D01*
X+2921000Y+2794000D02*
X+2920573Y+2804409D01*
X+2917101Y+2825228D01*
X+2909845Y+2846047D01*
X+2898017Y+2866866D01*
X+2879920Y+2887524D01*
X+2859101Y+2903045D01*
X+2838282Y+2913030D01*
X+2817463Y+2918814D01*
X+2796644Y+2920972D01*
X+2794000Y+2921000D01*
X+2667000Y+2794000D02*
X+2667427Y+2804409D01*
X+2670899Y+2825228D01*
X+2678155Y+2846047D01*
X+2689983Y+2866866D01*
X+2708080Y+2887524D01*
X+2728899Y+2903045D01*
X+2749718Y+2913030D01*
X+2770537Y+2918814D01*
X+2791356Y+2920972D01*
X+2794000Y+2921000D01*
X+2667000Y+2794000D02*
X+2667427Y+2783591D01*
X+2670899Y+2762772D01*
X+2678155Y+2741953D01*
X+2689983Y+2721134D01*
X+2708080Y+2700476D01*
X+2728899Y+2684955D01*
X+2749718Y+2674970D01*
X+2770537Y+2669186D01*
X+2791356Y+2667028D01*
X+2794000Y+2667000D01*
X+2921000Y+2794000D02*
X+2920573Y+2783591D01*
X+2917101Y+2762772D01*
X+2909845Y+2741953D01*
X+2898017Y+2721134D01*
X+2879920Y+2700476D01*
X+2859101Y+2684955D01*
X+2838282Y+2674970D01*
X+2817463Y+2669186D01*
X+2796644Y+2667028D01*
X+2794000Y+2667000D01*
X-2794000Y-3048000D02*
X-2845183Y-3042839D01*
X-2892859Y-3028036D01*
X-2936004Y-3004615D01*
X-2973597Y-2973597D01*
X-3004615Y-2936004D01*
X-3028036Y-2892859D01*
X-3042839Y-2845183D01*
X-3048000Y-2794000D01*
X+2794000Y-3048000D02*
X+2845183Y-3042839D01*
X+2892859Y-3028036D01*
X+2936004Y-3004615D01*
X+2973597Y-2973597D01*
X+3004615Y-2936004D01*
X+3028036Y-2892859D01*
X+3042839Y-2845183D01*
X+3048000Y-2794000D01*
X+3048000Y+2794000D02*
X+3042839Y+2845183D01*
X+3028036Y+2892859D01*
X+3004615Y+2936004D01*
X+2973597Y+2973597D01*
X+2936004Y+3004615D01*
X+2892859Y+3028036D01*
X+2845183Y+3042839D01*
X+2794000Y+3048000D01*
X-3048000Y+2794000D02*
X-3042839Y+2845183D01*
X-3028036Y+2892859D01*
X-3004615Y+2936004D01*
X-2973597Y+2973597D01*
X-2936004Y+3004615D01*
X-2892859Y+3028036D01*
X-2845183Y+3042839D01*
X-2794000Y+3048000D01*
X-3048000Y+2794000D02*
X-3048000Y-2794000D01*
X-2794000Y-3048000D02*
X+2794000Y-3048000D01*
X+3048000Y-2794000D02*
X+3048000Y+2794000D01*
X+2794000Y+3048000D02*
X-2794000Y+3048000D01*
M02*
