G04 PROTEUS GERBER X2 FILE*
%TF.GenerationSoftware,Labcenter,Proteus,8.17-SP2-Build37159*%
%TF.CreationDate,2024-06-14T20:57:10+00:00*%
%TF.FileFunction,Copper,L1,Top*%
%TF.FilePolarity,Positive*%
%TF.Part,Single*%
%TF.SameCoordinates,{55591e3b-a6ba-419d-b1af-bbe9e4acfd0b}*%
%FSLAX45Y45*%
%MOMM*%
G01*
%TA.AperFunction,ComponentPad*%
%ADD10C,2.032000*%
%TA.AperFunction,Profile*%
%ADD11C,0.203200*%
%TD.AperFunction*%
D10*
X-254000Y-2286000D03*
X-254000Y-2032000D03*
X-254000Y-1778000D03*
X-254000Y-1524000D03*
X-254000Y-1270000D03*
X-254000Y-1016000D03*
X-254000Y-762000D03*
X-254000Y-508000D03*
X-254000Y-254000D03*
X-254000Y+0D03*
X-254000Y+254000D03*
X-254000Y+508000D03*
X-254000Y+762000D03*
X-254000Y+1016000D03*
X-254000Y+1270000D03*
X-254000Y+1524000D03*
X-254000Y+1778000D03*
X-254000Y+2032000D03*
X-254000Y+2286000D03*
X+2286000Y-2286000D03*
X+2286000Y-2032000D03*
X+2286000Y-1778000D03*
X+2286000Y-1524000D03*
X+2286000Y-1270000D03*
X+2286000Y-1016000D03*
X+2286000Y-762000D03*
X+2286000Y-508000D03*
X+2286000Y-254000D03*
X+2286000Y+0D03*
X+2286000Y+254000D03*
X+2286000Y+508000D03*
X+2286000Y+762000D03*
X+2286000Y+1016000D03*
X+2286000Y+1270000D03*
X+2286000Y+1524000D03*
X+2286000Y+1778000D03*
X+2286000Y+2032000D03*
X+2286000Y+2286000D03*
X-2413000Y+127000D03*
X-2413000Y-373000D03*
X-1397000Y+889000D03*
X-1143000Y+889000D03*
X-1778000Y+2286000D03*
X-762000Y+2286000D03*
X-1778000Y+1778000D03*
X-762000Y+1778000D03*
X-2286000Y+889000D03*
X-2286000Y+1905000D03*
X-2413000Y-1143000D03*
X-2413000Y-1643000D03*
X-2413000Y-2143000D03*
X-1524000Y-2413000D03*
X-1024000Y-2413000D03*
D11*
X+2921000Y-2794000D02*
X+2920573Y-2783591D01*
X+2917101Y-2762772D01*
X+2909845Y-2741953D01*
X+2898017Y-2721134D01*
X+2879920Y-2700476D01*
X+2859101Y-2684955D01*
X+2838282Y-2674970D01*
X+2817463Y-2669186D01*
X+2796644Y-2667028D01*
X+2794000Y-2667000D01*
X+2667000Y-2794000D02*
X+2667427Y-2783591D01*
X+2670899Y-2762772D01*
X+2678155Y-2741953D01*
X+2689983Y-2721134D01*
X+2708080Y-2700476D01*
X+2728899Y-2684955D01*
X+2749718Y-2674970D01*
X+2770537Y-2669186D01*
X+2791356Y-2667028D01*
X+2794000Y-2667000D01*
X+2667000Y-2794000D02*
X+2667427Y-2804409D01*
X+2670899Y-2825228D01*
X+2678155Y-2846047D01*
X+2689983Y-2866866D01*
X+2708080Y-2887524D01*
X+2728899Y-2903045D01*
X+2749718Y-2913030D01*
X+2770537Y-2918814D01*
X+2791356Y-2920972D01*
X+2794000Y-2921000D01*
X+2921000Y-2794000D02*
X+2920573Y-2804409D01*
X+2917101Y-2825228D01*
X+2909845Y-2846047D01*
X+2898017Y-2866866D01*
X+2879920Y-2887524D01*
X+2859101Y-2903045D01*
X+2838282Y-2913030D01*
X+2817463Y-2918814D01*
X+2796644Y-2920972D01*
X+2794000Y-2921000D01*
X-2667000Y-2794000D02*
X-2667427Y-2783591D01*
X-2670899Y-2762772D01*
X-2678155Y-2741953D01*
X-2689983Y-2721134D01*
X-2708080Y-2700476D01*
X-2728899Y-2684955D01*
X-2749718Y-2674970D01*
X-2770537Y-2669186D01*
X-2791356Y-2667028D01*
X-2794000Y-2667000D01*
X-2921000Y-2794000D02*
X-2920573Y-2783591D01*
X-2917101Y-2762772D01*
X-2909845Y-2741953D01*
X-2898017Y-2721134D01*
X-2879920Y-2700476D01*
X-2859101Y-2684955D01*
X-2838282Y-2674970D01*
X-2817463Y-2669186D01*
X-2796644Y-2667028D01*
X-2794000Y-2667000D01*
X-2921000Y-2794000D02*
X-2920573Y-2804409D01*
X-2917101Y-2825228D01*
X-2909845Y-2846047D01*
X-2898017Y-2866866D01*
X-2879920Y-2887524D01*
X-2859101Y-2903045D01*
X-2838282Y-2913030D01*
X-2817463Y-2918814D01*
X-2796644Y-2920972D01*
X-2794000Y-2921000D01*
X-2667000Y-2794000D02*
X-2667427Y-2804409D01*
X-2670899Y-2825228D01*
X-2678155Y-2846047D01*
X-2689983Y-2866866D01*
X-2708080Y-2887524D01*
X-2728899Y-2903045D01*
X-2749718Y-2913030D01*
X-2770537Y-2918814D01*
X-2791356Y-2920972D01*
X-2794000Y-2921000D01*
X-2667000Y+2794000D02*
X-2667427Y+2804409D01*
X-2670899Y+2825228D01*
X-2678155Y+2846047D01*
X-2689983Y+2866866D01*
X-2708080Y+2887524D01*
X-2728899Y+2903045D01*
X-2749718Y+2913030D01*
X-2770537Y+2918814D01*
X-2791356Y+2920972D01*
X-2794000Y+2921000D01*
X-2921000Y+2794000D02*
X-2920573Y+2804409D01*
X-2917101Y+2825228D01*
X-2909845Y+2846047D01*
X-2898017Y+2866866D01*
X-2879920Y+2887524D01*
X-2859101Y+2903045D01*
X-2838282Y+2913030D01*
X-2817463Y+2918814D01*
X-2796644Y+2920972D01*
X-2794000Y+2921000D01*
X-2921000Y+2794000D02*
X-2920573Y+2783591D01*
X-2917101Y+2762772D01*
X-2909845Y+2741953D01*
X-2898017Y+2721134D01*
X-2879920Y+2700476D01*
X-2859101Y+2684955D01*
X-2838282Y+2674970D01*
X-2817463Y+2669186D01*
X-2796644Y+2667028D01*
X-2794000Y+2667000D01*
X-2667000Y+2794000D02*
X-2667427Y+2783591D01*
X-2670899Y+2762772D01*
X-2678155Y+2741953D01*
X-2689983Y+2721134D01*
X-2708080Y+2700476D01*
X-2728899Y+2684955D01*
X-2749718Y+2674970D01*
X-2770537Y+2669186D01*
X-2791356Y+2667028D01*
X-2794000Y+2667000D01*
X+2921000Y+2794000D02*
X+2920573Y+2804409D01*
X+2917101Y+2825228D01*
X+2909845Y+2846047D01*
X+2898017Y+2866866D01*
X+2879920Y+2887524D01*
X+2859101Y+2903045D01*
X+2838282Y+2913030D01*
X+2817463Y+2918814D01*
X+2796644Y+2920972D01*
X+2794000Y+2921000D01*
X+2667000Y+2794000D02*
X+2667427Y+2804409D01*
X+2670899Y+2825228D01*
X+2678155Y+2846047D01*
X+2689983Y+2866866D01*
X+2708080Y+2887524D01*
X+2728899Y+2903045D01*
X+2749718Y+2913030D01*
X+2770537Y+2918814D01*
X+2791356Y+2920972D01*
X+2794000Y+2921000D01*
X+2667000Y+2794000D02*
X+2667427Y+2783591D01*
X+2670899Y+2762772D01*
X+2678155Y+2741953D01*
X+2689983Y+2721134D01*
X+2708080Y+2700476D01*
X+2728899Y+2684955D01*
X+2749718Y+2674970D01*
X+2770537Y+2669186D01*
X+2791356Y+2667028D01*
X+2794000Y+2667000D01*
X+2921000Y+2794000D02*
X+2920573Y+2783591D01*
X+2917101Y+2762772D01*
X+2909845Y+2741953D01*
X+2898017Y+2721134D01*
X+2879920Y+2700476D01*
X+2859101Y+2684955D01*
X+2838282Y+2674970D01*
X+2817463Y+2669186D01*
X+2796644Y+2667028D01*
X+2794000Y+2667000D01*
X-2794000Y-3048000D02*
X-2845183Y-3042839D01*
X-2892859Y-3028036D01*
X-2936004Y-3004615D01*
X-2973597Y-2973597D01*
X-3004615Y-2936004D01*
X-3028036Y-2892859D01*
X-3042839Y-2845183D01*
X-3048000Y-2794000D01*
X+2794000Y-3048000D02*
X+2845183Y-3042839D01*
X+2892859Y-3028036D01*
X+2936004Y-3004615D01*
X+2973597Y-2973597D01*
X+3004615Y-2936004D01*
X+3028036Y-2892859D01*
X+3042839Y-2845183D01*
X+3048000Y-2794000D01*
X+3048000Y+2794000D02*
X+3042839Y+2845183D01*
X+3028036Y+2892859D01*
X+3004615Y+2936004D01*
X+2973597Y+2973597D01*
X+2936004Y+3004615D01*
X+2892859Y+3028036D01*
X+2845183Y+3042839D01*
X+2794000Y+3048000D01*
X-3048000Y+2794000D02*
X-3042839Y+2845183D01*
X-3028036Y+2892859D01*
X-3004615Y+2936004D01*
X-2973597Y+2973597D01*
X-2936004Y+3004615D01*
X-2892859Y+3028036D01*
X-2845183Y+3042839D01*
X-2794000Y+3048000D01*
X-3048000Y+2794000D02*
X-3048000Y-2794000D01*
X-2794000Y-3048000D02*
X+2794000Y-3048000D01*
X+3048000Y-2794000D02*
X+3048000Y+2794000D01*
X+2794000Y+3048000D02*
X-2794000Y+3048000D01*
M02*
