G04 PROTEUS GERBER X2 FILE*
%TF.GenerationSoftware,Labcenter,Proteus,8.17-SP2-Build37159*%
%TF.CreationDate,2024-06-14T20:57:10+00:00*%
%TF.FileFunction,Legend,Top*%
%TF.FilePolarity,Positive*%
%TF.Part,Single*%
%TF.SameCoordinates,{55591e3b-a6ba-419d-b1af-bbe9e4acfd0b}*%
%FSLAX45Y45*%
%MOMM*%
G01*
%TA.AperFunction,Material*%
%ADD14C,0.203200*%
%TA.AperFunction,Profile*%
%ADD11C,0.203200*%
%TA.AperFunction,NonMaterial*%
%ADD15C,0.203200*%
%ADD16C,0.063500*%
%TD.AperFunction*%
D14*
X-508000Y-2540000D02*
X+2540000Y-2540000D01*
X+2540000Y+2540000D01*
X-508000Y+2540000D01*
X-508000Y-2540000D01*
X+787400Y+304800D02*
X+635000Y+304800D01*
X+635000Y+457200D01*
X+787400Y+457200D01*
X+635000Y+381000D02*
X+736600Y+381000D01*
X+838200Y+330200D02*
X+863600Y+304800D01*
X+965200Y+304800D01*
X+990600Y+330200D01*
X+990600Y+355600D01*
X+965200Y+381000D01*
X+863600Y+381000D01*
X+838200Y+406400D01*
X+838200Y+431800D01*
X+863600Y+457200D01*
X+965200Y+457200D01*
X+990600Y+431800D01*
X+1041400Y+304800D02*
X+1041400Y+457200D01*
X+1168400Y+457200D01*
X+1193800Y+431800D01*
X+1193800Y+406400D01*
X+1168400Y+381000D01*
X+1041400Y+381000D01*
X+1270000Y+431800D02*
X+1295400Y+457200D01*
X+1371600Y+457200D01*
X+1397000Y+431800D01*
X+1397000Y+406400D01*
X+1371600Y+381000D01*
X+1397000Y+355600D01*
X+1397000Y+330200D01*
X+1371600Y+304800D01*
X+1295400Y+304800D01*
X+1270000Y+330200D01*
X+1320800Y+381000D02*
X+1371600Y+381000D01*
X+1473200Y+431800D02*
X+1498600Y+457200D01*
X+1574800Y+457200D01*
X+1600200Y+431800D01*
X+1600200Y+406400D01*
X+1574800Y+381000D01*
X+1498600Y+381000D01*
X+1473200Y+355600D01*
X+1473200Y+304800D01*
X+1600200Y+304800D01*
X+381000Y+76200D02*
X+381000Y-76200D01*
X+457200Y+0D01*
X+533400Y-76200D01*
X+533400Y+76200D01*
X+584200Y-76200D02*
X+584200Y+76200D01*
X+711200Y+76200D01*
X+736600Y+50800D01*
X+736600Y+25400D01*
X+711200Y+0D01*
X+584200Y+0D01*
X+711200Y+0D02*
X+736600Y-25400D01*
X+736600Y-76200D01*
X+787400Y+25400D02*
X+838200Y+76200D01*
X+889000Y+76200D01*
X+939800Y+25400D01*
X+939800Y-25400D01*
X+889000Y-76200D01*
X+838200Y-76200D01*
X+787400Y-25400D01*
X+787400Y+25400D01*
X+990600Y+25400D02*
X+1041400Y+76200D01*
X+1092200Y+76200D01*
X+1143000Y+25400D01*
X+1143000Y-25400D01*
X+1092200Y-76200D01*
X+1041400Y-76200D01*
X+990600Y-25400D01*
X+990600Y+25400D01*
X+1193800Y-76200D02*
X+1193800Y+76200D01*
X+1270000Y+0D01*
X+1346200Y+76200D01*
X+1346200Y-76200D01*
X+1422400Y+50800D02*
X+1447800Y+76200D01*
X+1524000Y+76200D01*
X+1549400Y+50800D01*
X+1549400Y+25400D01*
X+1524000Y+0D01*
X+1549400Y-25400D01*
X+1549400Y-50800D01*
X+1524000Y-76200D01*
X+1447800Y-76200D01*
X+1422400Y-50800D01*
X+1473200Y+0D02*
X+1524000Y+0D01*
X+1625600Y+50800D02*
X+1651000Y+76200D01*
X+1727200Y+76200D01*
X+1752600Y+50800D01*
X+1752600Y+25400D01*
X+1727200Y+0D01*
X+1651000Y+0D01*
X+1625600Y-25400D01*
X+1625600Y-76200D01*
X+1752600Y-76200D01*
X+920750Y+2682240D02*
X+825500Y+2682240D01*
X+825500Y+2773680D01*
X+920750Y+2773680D01*
X+825500Y+2727960D02*
X+889000Y+2727960D01*
X+952500Y+2697480D02*
X+968375Y+2682240D01*
X+1031875Y+2682240D01*
X+1047750Y+2697480D01*
X+1047750Y+2712720D01*
X+1031875Y+2727960D01*
X+968375Y+2727960D01*
X+952500Y+2743200D01*
X+952500Y+2758440D01*
X+968375Y+2773680D01*
X+1031875Y+2773680D01*
X+1047750Y+2758440D01*
X+1079500Y+2682240D02*
X+1079500Y+2773680D01*
X+1158875Y+2773680D01*
X+1174750Y+2758440D01*
X+1174750Y+2743200D01*
X+1158875Y+2727960D01*
X+1079500Y+2727960D01*
X-2763000Y-623000D02*
X-2063000Y-623000D01*
X-2063000Y+377000D01*
X-2763000Y+377000D01*
X-2763000Y-623000D01*
X-1880120Y-91250D02*
X-1895360Y-75375D01*
X-1895360Y-27750D01*
X-1864880Y+4000D01*
X-1834400Y+4000D01*
X-1803920Y-27750D01*
X-1803920Y-75375D01*
X-1819160Y-91250D01*
X-1880120Y-123000D02*
X-1895360Y-138875D01*
X-1895360Y-202375D01*
X-1880120Y-218250D01*
X-1864880Y-218250D01*
X-1849640Y-202375D01*
X-1849640Y-138875D01*
X-1834400Y-123000D01*
X-1819160Y-123000D01*
X-1803920Y-138875D01*
X-1803920Y-202375D01*
X-1819160Y-218250D01*
X-1016000Y+889000D02*
X-1016827Y+909483D01*
X-1023545Y+950450D01*
X-1037563Y+991417D01*
X-1060341Y+1032384D01*
X-1095141Y+1073229D01*
X-1136108Y+1104845D01*
X-1177075Y+1125392D01*
X-1218042Y+1137629D01*
X-1259009Y+1142762D01*
X-1270000Y+1143000D01*
X-1524000Y+889000D02*
X-1523173Y+909483D01*
X-1516455Y+950450D01*
X-1502437Y+991417D01*
X-1479659Y+1032384D01*
X-1444859Y+1073229D01*
X-1403892Y+1104845D01*
X-1362925Y+1125392D01*
X-1321958Y+1137629D01*
X-1280991Y+1142762D01*
X-1270000Y+1143000D01*
X-1524000Y+889000D02*
X-1523173Y+868517D01*
X-1516455Y+827550D01*
X-1502437Y+786583D01*
X-1479659Y+745616D01*
X-1444859Y+704771D01*
X-1403892Y+673155D01*
X-1362925Y+652608D01*
X-1321958Y+640371D01*
X-1280991Y+635238D01*
X-1270000Y+635000D01*
X-1016000Y+889000D02*
X-1016827Y+868517D01*
X-1023545Y+827550D01*
X-1037563Y+786583D01*
X-1060341Y+745616D01*
X-1095141Y+704771D01*
X-1136108Y+673155D01*
X-1177075Y+652608D01*
X-1218042Y+640371D01*
X-1259009Y+635238D01*
X-1270000Y+635000D01*
X-1460500Y+1016000D02*
X-1333500Y+1016000D01*
X-1397000Y+1079500D02*
X-1397000Y+952500D01*
X-1302670Y+1338580D02*
X-1318545Y+1323340D01*
X-1366170Y+1323340D01*
X-1397920Y+1353820D01*
X-1397920Y+1384300D01*
X-1366170Y+1414780D01*
X-1318545Y+1414780D01*
X-1302670Y+1399540D01*
X-1239170Y+1384300D02*
X-1207420Y+1414780D01*
X-1207420Y+1323340D01*
X-1651000Y+2286000D02*
X-1524000Y+2286000D01*
X-1524000Y+2222500D02*
X-1016000Y+2222500D01*
X-1016000Y+2349500D01*
X-1524000Y+2349500D01*
X-1524000Y+2222500D01*
X-1016000Y+2286000D02*
X-889000Y+2286000D01*
X-1397000Y+2453640D02*
X-1397000Y+2545080D01*
X-1317625Y+2545080D01*
X-1301750Y+2529840D01*
X-1301750Y+2514600D01*
X-1317625Y+2499360D01*
X-1397000Y+2499360D01*
X-1317625Y+2499360D02*
X-1301750Y+2484120D01*
X-1301750Y+2453640D01*
X-1238250Y+2514600D02*
X-1206500Y+2545080D01*
X-1206500Y+2453640D01*
X-1651000Y+1778000D02*
X-1524000Y+1778000D01*
X-1524000Y+1714500D02*
X-1016000Y+1714500D01*
X-1016000Y+1841500D01*
X-1524000Y+1841500D01*
X-1524000Y+1714500D01*
X-1016000Y+1778000D02*
X-889000Y+1778000D01*
X-1397000Y+1932940D02*
X-1397000Y+2024380D01*
X-1317625Y+2024380D01*
X-1301750Y+2009140D01*
X-1301750Y+1993900D01*
X-1317625Y+1978660D01*
X-1397000Y+1978660D01*
X-1317625Y+1978660D02*
X-1301750Y+1963420D01*
X-1301750Y+1932940D01*
X-1254125Y+2009140D02*
X-1238250Y+2024380D01*
X-1190625Y+2024380D01*
X-1174750Y+2009140D01*
X-1174750Y+1993900D01*
X-1190625Y+1978660D01*
X-1238250Y+1978660D01*
X-1254125Y+1963420D01*
X-1254125Y+1932940D01*
X-1174750Y+1932940D01*
X-2286000Y+1016000D02*
X-2286000Y+1143000D01*
X-2349500Y+1143000D02*
X-2222500Y+1143000D01*
X-2222500Y+1651000D01*
X-2349500Y+1651000D01*
X-2349500Y+1143000D01*
X-2286000Y+1651000D02*
X-2286000Y+1778000D01*
X-2125980Y+1524000D02*
X-2034540Y+1524000D01*
X-2034540Y+1444625D01*
X-2049780Y+1428750D01*
X-2065020Y+1428750D01*
X-2080260Y+1444625D01*
X-2080260Y+1524000D01*
X-2080260Y+1444625D02*
X-2095500Y+1428750D01*
X-2125980Y+1428750D01*
X-2049780Y+1381125D02*
X-2034540Y+1365250D01*
X-2034540Y+1317625D01*
X-2049780Y+1301750D01*
X-2065020Y+1301750D01*
X-2080260Y+1317625D01*
X-2095500Y+1301750D01*
X-2110740Y+1301750D01*
X-2125980Y+1317625D01*
X-2125980Y+1365250D01*
X-2110740Y+1381125D01*
X-2080260Y+1349375D02*
X-2080260Y+1317625D01*
X-2763000Y-2393000D02*
X-2063000Y-2393000D01*
X-2063000Y-893000D01*
X-2763000Y-893000D01*
X-2763000Y-2393000D01*
X-1803920Y-1516000D02*
X-1849640Y-1516000D01*
X-1895360Y-1563625D01*
X-1849640Y-1611250D01*
X-1803920Y-1611250D01*
X-1880120Y-1643000D02*
X-1895360Y-1658875D01*
X-1895360Y-1722375D01*
X-1880120Y-1738250D01*
X-1864880Y-1738250D01*
X-1849640Y-1722375D01*
X-1849640Y-1658875D01*
X-1834400Y-1643000D01*
X-1819160Y-1643000D01*
X-1803920Y-1658875D01*
X-1803920Y-1722375D01*
X-1819160Y-1738250D01*
D11*
X+2921000Y-2794000D02*
X+2920573Y-2783591D01*
X+2917101Y-2762772D01*
X+2909845Y-2741953D01*
X+2898017Y-2721134D01*
X+2879920Y-2700476D01*
X+2859101Y-2684955D01*
X+2838282Y-2674970D01*
X+2817463Y-2669186D01*
X+2796644Y-2667028D01*
X+2794000Y-2667000D01*
X+2667000Y-2794000D02*
X+2667427Y-2783591D01*
X+2670899Y-2762772D01*
X+2678155Y-2741953D01*
X+2689983Y-2721134D01*
X+2708080Y-2700476D01*
X+2728899Y-2684955D01*
X+2749718Y-2674970D01*
X+2770537Y-2669186D01*
X+2791356Y-2667028D01*
X+2794000Y-2667000D01*
X+2667000Y-2794000D02*
X+2667427Y-2804409D01*
X+2670899Y-2825228D01*
X+2678155Y-2846047D01*
X+2689983Y-2866866D01*
X+2708080Y-2887524D01*
X+2728899Y-2903045D01*
X+2749718Y-2913030D01*
X+2770537Y-2918814D01*
X+2791356Y-2920972D01*
X+2794000Y-2921000D01*
X+2921000Y-2794000D02*
X+2920573Y-2804409D01*
X+2917101Y-2825228D01*
X+2909845Y-2846047D01*
X+2898017Y-2866866D01*
X+2879920Y-2887524D01*
X+2859101Y-2903045D01*
X+2838282Y-2913030D01*
X+2817463Y-2918814D01*
X+2796644Y-2920972D01*
X+2794000Y-2921000D01*
X-2667000Y-2794000D02*
X-2667427Y-2783591D01*
X-2670899Y-2762772D01*
X-2678155Y-2741953D01*
X-2689983Y-2721134D01*
X-2708080Y-2700476D01*
X-2728899Y-2684955D01*
X-2749718Y-2674970D01*
X-2770537Y-2669186D01*
X-2791356Y-2667028D01*
X-2794000Y-2667000D01*
X-2921000Y-2794000D02*
X-2920573Y-2783591D01*
X-2917101Y-2762772D01*
X-2909845Y-2741953D01*
X-2898017Y-2721134D01*
X-2879920Y-2700476D01*
X-2859101Y-2684955D01*
X-2838282Y-2674970D01*
X-2817463Y-2669186D01*
X-2796644Y-2667028D01*
X-2794000Y-2667000D01*
X-2921000Y-2794000D02*
X-2920573Y-2804409D01*
X-2917101Y-2825228D01*
X-2909845Y-2846047D01*
X-2898017Y-2866866D01*
X-2879920Y-2887524D01*
X-2859101Y-2903045D01*
X-2838282Y-2913030D01*
X-2817463Y-2918814D01*
X-2796644Y-2920972D01*
X-2794000Y-2921000D01*
X-2667000Y-2794000D02*
X-2667427Y-2804409D01*
X-2670899Y-2825228D01*
X-2678155Y-2846047D01*
X-2689983Y-2866866D01*
X-2708080Y-2887524D01*
X-2728899Y-2903045D01*
X-2749718Y-2913030D01*
X-2770537Y-2918814D01*
X-2791356Y-2920972D01*
X-2794000Y-2921000D01*
X-2667000Y+2794000D02*
X-2667427Y+2804409D01*
X-2670899Y+2825228D01*
X-2678155Y+2846047D01*
X-2689983Y+2866866D01*
X-2708080Y+2887524D01*
X-2728899Y+2903045D01*
X-2749718Y+2913030D01*
X-2770537Y+2918814D01*
X-2791356Y+2920972D01*
X-2794000Y+2921000D01*
X-2921000Y+2794000D02*
X-2920573Y+2804409D01*
X-2917101Y+2825228D01*
X-2909845Y+2846047D01*
X-2898017Y+2866866D01*
X-2879920Y+2887524D01*
X-2859101Y+2903045D01*
X-2838282Y+2913030D01*
X-2817463Y+2918814D01*
X-2796644Y+2920972D01*
X-2794000Y+2921000D01*
X-2921000Y+2794000D02*
X-2920573Y+2783591D01*
X-2917101Y+2762772D01*
X-2909845Y+2741953D01*
X-2898017Y+2721134D01*
X-2879920Y+2700476D01*
X-2859101Y+2684955D01*
X-2838282Y+2674970D01*
X-2817463Y+2669186D01*
X-2796644Y+2667028D01*
X-2794000Y+2667000D01*
X-2667000Y+2794000D02*
X-2667427Y+2783591D01*
X-2670899Y+2762772D01*
X-2678155Y+2741953D01*
X-2689983Y+2721134D01*
X-2708080Y+2700476D01*
X-2728899Y+2684955D01*
X-2749718Y+2674970D01*
X-2770537Y+2669186D01*
X-2791356Y+2667028D01*
X-2794000Y+2667000D01*
X+2921000Y+2794000D02*
X+2920573Y+2804409D01*
X+2917101Y+2825228D01*
X+2909845Y+2846047D01*
X+2898017Y+2866866D01*
X+2879920Y+2887524D01*
X+2859101Y+2903045D01*
X+2838282Y+2913030D01*
X+2817463Y+2918814D01*
X+2796644Y+2920972D01*
X+2794000Y+2921000D01*
X+2667000Y+2794000D02*
X+2667427Y+2804409D01*
X+2670899Y+2825228D01*
X+2678155Y+2846047D01*
X+2689983Y+2866866D01*
X+2708080Y+2887524D01*
X+2728899Y+2903045D01*
X+2749718Y+2913030D01*
X+2770537Y+2918814D01*
X+2791356Y+2920972D01*
X+2794000Y+2921000D01*
X+2667000Y+2794000D02*
X+2667427Y+2783591D01*
X+2670899Y+2762772D01*
X+2678155Y+2741953D01*
X+2689983Y+2721134D01*
X+2708080Y+2700476D01*
X+2728899Y+2684955D01*
X+2749718Y+2674970D01*
X+2770537Y+2669186D01*
X+2791356Y+2667028D01*
X+2794000Y+2667000D01*
X+2921000Y+2794000D02*
X+2920573Y+2783591D01*
X+2917101Y+2762772D01*
X+2909845Y+2741953D01*
X+2898017Y+2721134D01*
X+2879920Y+2700476D01*
X+2859101Y+2684955D01*
X+2838282Y+2674970D01*
X+2817463Y+2669186D01*
X+2796644Y+2667028D01*
X+2794000Y+2667000D01*
X-2794000Y-3048000D02*
X-2845183Y-3042839D01*
X-2892859Y-3028036D01*
X-2936004Y-3004615D01*
X-2973597Y-2973597D01*
X-3004615Y-2936004D01*
X-3028036Y-2892859D01*
X-3042839Y-2845183D01*
X-3048000Y-2794000D01*
X+2794000Y-3048000D02*
X+2845183Y-3042839D01*
X+2892859Y-3028036D01*
X+2936004Y-3004615D01*
X+2973597Y-2973597D01*
X+3004615Y-2936004D01*
X+3028036Y-2892859D01*
X+3042839Y-2845183D01*
X+3048000Y-2794000D01*
X+3048000Y+2794000D02*
X+3042839Y+2845183D01*
X+3028036Y+2892859D01*
X+3004615Y+2936004D01*
X+2973597Y+2973597D01*
X+2936004Y+3004615D01*
X+2892859Y+3028036D01*
X+2845183Y+3042839D01*
X+2794000Y+3048000D01*
X-3048000Y+2794000D02*
X-3042839Y+2845183D01*
X-3028036Y+2892859D01*
X-3004615Y+2936004D01*
X-2973597Y+2973597D01*
X-2936004Y+3004615D01*
X-2892859Y+3028036D01*
X-2845183Y+3042839D01*
X-2794000Y+3048000D01*
X-3048000Y+2794000D02*
X-3048000Y-2794000D01*
X-2794000Y-3048000D02*
X+2794000Y-3048000D01*
X+3048000Y-2794000D02*
X+3048000Y+2794000D01*
X+2794000Y+3048000D02*
X-2794000Y+3048000D01*
D14*
X-1774000Y-2763000D02*
X-774000Y-2763000D01*
X-774000Y-2063000D01*
X-1774000Y-2063000D01*
X-1774000Y-2763000D01*
X-1464500Y-1803920D02*
X-1464500Y-1849640D01*
X-1416875Y-1895360D01*
X-1369250Y-1849640D01*
X-1369250Y-1803920D01*
X-1321625Y-1803920D02*
X-1258125Y-1803920D01*
X-1289875Y-1803920D02*
X-1289875Y-1895360D01*
X-1321625Y-1895360D02*
X-1258125Y-1895360D01*
X-1210500Y-1895360D02*
X-1210500Y-1803920D01*
X-1115250Y-1895360D01*
X-1115250Y-1803920D01*
D15*
X-1600200Y-2921000D02*
X-1447800Y-2921000D01*
X-1524000Y-2870200D02*
X-1524000Y-2971800D01*
X-952500Y-2921000D02*
X-1079500Y-2921000D01*
X-2921000Y+63500D02*
X-2921000Y+215900D01*
X-2971800Y+139700D02*
X-2870200Y+139700D01*
X-2921000Y-2095500D02*
X-2921000Y-2247900D01*
X-2870200Y-2171700D02*
X-2971800Y-2171700D01*
X-2921000Y-1689100D02*
X-2921000Y-1562100D01*
X-2921000Y-482600D02*
X-2921000Y-355600D01*
X-63500Y-2242820D02*
X-63500Y-2273300D01*
X-15875Y-2303780D01*
X+31750Y-2273300D01*
X+31750Y-2242820D01*
X+158750Y-2242820D02*
X+79375Y-2242820D01*
X+79375Y-2263140D01*
X+142875Y-2263140D01*
X+158750Y-2273300D01*
X+158750Y-2293620D01*
X+142875Y-2303780D01*
X+95250Y-2303780D01*
X+79375Y-2293620D01*
X+0Y-1013460D02*
X+31750Y-1013460D01*
X+31750Y-1033780D01*
X-31750Y-1033780D01*
X-63500Y-1013460D01*
X-63500Y-993140D01*
X-31750Y-972820D01*
X+15875Y-972820D01*
X+31750Y-982980D01*
X+63500Y-1033780D02*
X+63500Y-972820D01*
X+158750Y-1033780D01*
X+158750Y-972820D01*
X+190500Y-1033780D02*
X+190500Y-972820D01*
X+254000Y-972820D01*
X+285750Y-993140D01*
X+285750Y-1013460D01*
X+254000Y-1033780D01*
X+190500Y-1033780D01*
X-47625Y+2319020D02*
X-31750Y+2329180D01*
X+15875Y+2329180D01*
X+31750Y+2319020D01*
X+31750Y+2308860D01*
X+15875Y+2298700D01*
X+31750Y+2288540D01*
X+31750Y+2278380D01*
X+15875Y+2268220D01*
X-31750Y+2268220D01*
X-47625Y+2278380D01*
X-15875Y+2298700D02*
X+15875Y+2298700D01*
X+63500Y+2329180D02*
X+63500Y+2298700D01*
X+111125Y+2268220D01*
X+158750Y+2298700D01*
X+158750Y+2329180D01*
X+206375Y+2319020D02*
X+222250Y+2329180D01*
X+269875Y+2329180D01*
X+285750Y+2319020D01*
X+285750Y+2308860D01*
X+269875Y+2298700D01*
X+285750Y+2288540D01*
X+285750Y+2278380D01*
X+269875Y+2268220D01*
X+222250Y+2268220D01*
X+206375Y+2278380D01*
X+238125Y+2298700D02*
X+269875Y+2298700D01*
X+1841500Y+2288540D02*
X+1873250Y+2288540D01*
X+1873250Y+2268220D01*
X+1809750Y+2268220D01*
X+1778000Y+2288540D01*
X+1778000Y+2308860D01*
X+1809750Y+2329180D01*
X+1857375Y+2329180D01*
X+1873250Y+2319020D01*
X+1905000Y+2268220D02*
X+1905000Y+2329180D01*
X+2000250Y+2268220D01*
X+2000250Y+2329180D01*
X+2032000Y+2268220D02*
X+2032000Y+2329180D01*
X+2095500Y+2329180D01*
X+2127250Y+2308860D01*
X+2127250Y+2288540D01*
X+2095500Y+2268220D01*
X+2032000Y+2268220D01*
X-47625Y+1303020D02*
X-31750Y+1313180D01*
X+15875Y+1313180D01*
X+31750Y+1303020D01*
X+31750Y+1292860D01*
X+15875Y+1282700D01*
X+31750Y+1272540D01*
X+31750Y+1262380D01*
X+15875Y+1252220D01*
X-31750Y+1252220D01*
X-47625Y+1262380D01*
X-15875Y+1282700D02*
X+15875Y+1282700D01*
X+158750Y+1272540D02*
X+63500Y+1272540D01*
X+127000Y+1313180D01*
X+127000Y+1252220D01*
X-47625Y+1049020D02*
X-31750Y+1059180D01*
X+15875Y+1059180D01*
X+31750Y+1049020D01*
X+31750Y+1038860D01*
X+15875Y+1028700D01*
X+31750Y+1018540D01*
X+31750Y+1008380D01*
X+15875Y+998220D01*
X-31750Y+998220D01*
X-47625Y+1008380D01*
X-15875Y+1028700D02*
X+15875Y+1028700D01*
X+158750Y+1059180D02*
X+79375Y+1059180D01*
X+79375Y+1038860D01*
X+142875Y+1038860D01*
X+158750Y+1028700D01*
X+158750Y+1008380D01*
X+142875Y+998220D01*
X+95250Y+998220D01*
X+79375Y+1008380D01*
X-3048000Y+3175000D02*
X+3048000Y+3175000D01*
X-3048000Y+3175000D02*
X-2946400Y+3073400D01*
X-3048000Y+3175000D02*
X-2946400Y+3276600D01*
X+3048000Y+3175000D02*
X+2946400Y+3276600D01*
X+3048000Y+3175000D02*
X+2946400Y+3073400D01*
X+25400Y+3175000D02*
X+25312Y+3177109D01*
X+24599Y+3181328D01*
X+23107Y+3185547D01*
X+20667Y+3189766D01*
X+16936Y+3193930D01*
X+12717Y+3196987D01*
X+8498Y+3198936D01*
X+4279Y+3200037D01*
X+60Y+3200400D01*
X+0Y+3200400D01*
X-25400Y+3175000D02*
X-25312Y+3177109D01*
X-24599Y+3181328D01*
X-23107Y+3185547D01*
X-20667Y+3189766D01*
X-16936Y+3193930D01*
X-12717Y+3196987D01*
X-8498Y+3198936D01*
X-4279Y+3200037D01*
X-60Y+3200400D01*
X+0Y+3200400D01*
X-25400Y+3175000D02*
X-25312Y+3172891D01*
X-24599Y+3168672D01*
X-23107Y+3164453D01*
X-20667Y+3160234D01*
X-16936Y+3156070D01*
X-12717Y+3153013D01*
X-8498Y+3151064D01*
X-4279Y+3149963D01*
X-60Y+3149600D01*
X+0Y+3149600D01*
X+25400Y+3175000D02*
X+25312Y+3172891D01*
X+24599Y+3168672D01*
X+23107Y+3164453D01*
X+20667Y+3160234D01*
X+16936Y+3156070D01*
X+12717Y+3153013D01*
X+8498Y+3151064D01*
X+4279Y+3149963D01*
X+60Y+3149600D01*
X+0Y+3149600D01*
X-349250Y+3291840D02*
X-365125Y+3307080D01*
X-412750Y+3307080D01*
X-428625Y+3291840D01*
X-428625Y+3230880D01*
X-412750Y+3215640D01*
X-365125Y+3215640D01*
X-349250Y+3230880D01*
X-349250Y+3246120D01*
X-365125Y+3261360D01*
X-428625Y+3261360D01*
X-317500Y+3230880D02*
X-317500Y+3291840D01*
X-301625Y+3307080D01*
X-238125Y+3307080D01*
X-222250Y+3291840D01*
X-222250Y+3230880D01*
X-238125Y+3215640D01*
X-301625Y+3215640D01*
X-317500Y+3230880D01*
X-317500Y+3215640D02*
X-222250Y+3307080D01*
X-142875Y+3230880D02*
X-127000Y+3230880D01*
X-127000Y+3215640D01*
X-142875Y+3215640D01*
X-142875Y+3230880D01*
X+31750Y+3276600D02*
X+15875Y+3261360D01*
X-31750Y+3261360D01*
X-47625Y+3276600D01*
X-47625Y+3291840D01*
X-31750Y+3307080D01*
X+15875Y+3307080D01*
X+31750Y+3291840D01*
X+31750Y+3230880D01*
X+15875Y+3215640D01*
X-31750Y+3215640D01*
X+158750Y+3291840D02*
X+142875Y+3307080D01*
X+95250Y+3307080D01*
X+79375Y+3291840D01*
X+79375Y+3230880D01*
X+95250Y+3215640D01*
X+142875Y+3215640D01*
X+158750Y+3230880D01*
X+158750Y+3246120D01*
X+142875Y+3261360D01*
X+79375Y+3261360D01*
X+190500Y+3215640D02*
X+190500Y+3276600D01*
X+190500Y+3261360D02*
X+206375Y+3276600D01*
X+238125Y+3246120D01*
X+269875Y+3276600D01*
X+285750Y+3261360D01*
X+285750Y+3215640D01*
X+317500Y+3215640D02*
X+317500Y+3276600D01*
X+317500Y+3261360D02*
X+333375Y+3276600D01*
X+365125Y+3246120D01*
X+396875Y+3276600D01*
X+412750Y+3261360D01*
X+412750Y+3215640D01*
X-3556000Y+3048000D02*
X-3556000Y-3048000D01*
X-3556000Y+3048000D02*
X-3657600Y+2946400D01*
X-3556000Y+3048000D02*
X-3454400Y+2946400D01*
X-3556000Y-3048000D02*
X-3454400Y-2946400D01*
X-3556000Y-3048000D02*
X-3657600Y-2946400D01*
X-3530600Y+0D02*
X-3530688Y+2109D01*
X-3531401Y+6328D01*
X-3532893Y+10547D01*
X-3535333Y+14766D01*
X-3539064Y+18930D01*
X-3543283Y+21987D01*
X-3547502Y+23936D01*
X-3551721Y+25037D01*
X-3555940Y+25400D01*
X-3556000Y+25400D01*
X-3581400Y+0D02*
X-3581312Y+2109D01*
X-3580599Y+6328D01*
X-3579107Y+10547D01*
X-3576667Y+14766D01*
X-3572936Y+18930D01*
X-3568717Y+21987D01*
X-3564498Y+23936D01*
X-3560279Y+25037D01*
X-3556060Y+25400D01*
X-3556000Y+25400D01*
X-3581400Y+0D02*
X-3581312Y-2109D01*
X-3580599Y-6328D01*
X-3579107Y-10547D01*
X-3576667Y-14766D01*
X-3572936Y-18930D01*
X-3568717Y-21987D01*
X-3564498Y-23936D01*
X-3560279Y-25037D01*
X-3556060Y-25400D01*
X-3556000Y-25400D01*
X-3530600Y+0D02*
X-3530688Y-2109D01*
X-3531401Y-6328D01*
X-3532893Y-10547D01*
X-3535333Y-14766D01*
X-3539064Y-18930D01*
X-3543283Y-21987D01*
X-3547502Y-23936D01*
X-3551721Y-25037D01*
X-3555940Y-25400D01*
X-3556000Y-25400D01*
X-3439160Y+349250D02*
X-3423920Y+365125D01*
X-3423920Y+412750D01*
X-3439160Y+428625D01*
X-3500120Y+428625D01*
X-3515360Y+412750D01*
X-3515360Y+365125D01*
X-3500120Y+349250D01*
X-3484880Y+349250D01*
X-3469640Y+365125D01*
X-3469640Y+428625D01*
X-3500120Y+317500D02*
X-3439160Y+317500D01*
X-3423920Y+301625D01*
X-3423920Y+238125D01*
X-3439160Y+222250D01*
X-3500120Y+222250D01*
X-3515360Y+238125D01*
X-3515360Y+301625D01*
X-3500120Y+317500D01*
X-3515360Y+317500D02*
X-3423920Y+222250D01*
X-3500120Y+142875D02*
X-3500120Y+127000D01*
X-3515360Y+127000D01*
X-3515360Y+142875D01*
X-3500120Y+142875D01*
X-3454400Y-31750D02*
X-3469640Y-15875D01*
X-3469640Y+31750D01*
X-3454400Y+47625D01*
X-3439160Y+47625D01*
X-3423920Y+31750D01*
X-3423920Y-15875D01*
X-3439160Y-31750D01*
X-3500120Y-31750D01*
X-3515360Y-15875D01*
X-3515360Y+31750D01*
X-3439160Y-158750D02*
X-3423920Y-142875D01*
X-3423920Y-95250D01*
X-3439160Y-79375D01*
X-3500120Y-79375D01*
X-3515360Y-95250D01*
X-3515360Y-142875D01*
X-3500120Y-158750D01*
X-3484880Y-158750D01*
X-3469640Y-142875D01*
X-3469640Y-79375D01*
X-3515360Y-190500D02*
X-3454400Y-190500D01*
X-3469640Y-190500D02*
X-3454400Y-206375D01*
X-3484880Y-238125D01*
X-3454400Y-269875D01*
X-3469640Y-285750D01*
X-3515360Y-285750D01*
X-3515360Y-317500D02*
X-3454400Y-317500D01*
X-3469640Y-317500D02*
X-3454400Y-333375D01*
X-3484880Y-365125D01*
X-3454400Y-396875D01*
X-3469640Y-412750D01*
X-3515360Y-412750D01*
D16*
X+2733020Y-1197460D02*
X+2733020Y-1182220D01*
X+2733020Y-1095860D02*
X+2733020Y-1080620D01*
X+2733020Y-968860D02*
X+2733020Y-953620D01*
X+2733020Y-476100D02*
X+2733020Y-450700D01*
X+2733020Y-293220D02*
X+2733020Y-257660D01*
X+2733020Y+346860D02*
X+2733020Y+372260D01*
X+2733020Y+448460D02*
X+2733020Y+473860D01*
X+2733020Y+712620D02*
X+2733020Y+727860D01*
X+2733020Y+1073300D02*
X+2733020Y+1088540D01*
X+2733020Y+1225700D02*
X+2733020Y+1317140D01*
X+2738100Y-1197460D02*
X+2738100Y-1177140D01*
X+2738100Y-1100940D02*
X+2738100Y-1080620D01*
X+2738100Y-968860D02*
X+2738100Y-953620D01*
X+2738100Y-918060D02*
X+2738100Y-907900D01*
X+2738100Y-486260D02*
X+2738100Y-440540D01*
X+2738100Y-303380D02*
X+2738100Y-242420D01*
X+2738100Y+255420D02*
X+2738100Y+265580D01*
X+2738100Y+346860D02*
X+2738100Y+377340D01*
X+2738100Y+443380D02*
X+2738100Y+473860D01*
X+2738100Y+712620D02*
X+2738100Y+727860D01*
X+2738100Y+763420D02*
X+2738100Y+773580D01*
X+2738100Y+1073300D02*
X+2738100Y+1088540D01*
X+2738100Y+1225700D02*
X+2738100Y+1317140D01*
X+2743180Y-1192380D02*
X+2743180Y-1177140D01*
X+2743180Y-1100940D02*
X+2743180Y-1085700D01*
X+2743180Y-968860D02*
X+2743180Y-953620D01*
X+2743180Y-923140D02*
X+2743180Y-907900D01*
X+2743180Y-491340D02*
X+2743180Y-435460D01*
X+2743180Y-313540D02*
X+2743180Y-237340D01*
X+2743180Y+250340D02*
X+2743180Y+265580D01*
X+2743180Y+346860D02*
X+2743180Y+377340D01*
X+2743180Y+443380D02*
X+2743180Y+473860D01*
X+2743180Y+712620D02*
X+2743180Y+727860D01*
X+2743180Y+758340D02*
X+2743180Y+773580D01*
X+2743180Y+1073300D02*
X+2743180Y+1088540D01*
X+2743180Y+1225700D02*
X+2743180Y+1317140D01*
X+2748260Y-1192380D02*
X+2748260Y-1177140D01*
X+2748260Y-1100940D02*
X+2748260Y-1085700D01*
X+2748260Y-968860D02*
X+2748260Y-953620D01*
X+2748260Y-923140D02*
X+2748260Y-907900D01*
X+2748260Y-491340D02*
X+2748260Y-471020D01*
X+2748260Y-455780D02*
X+2748260Y-430380D01*
X+2748260Y-318620D02*
X+2748260Y-288140D01*
X+2748260Y-257660D02*
X+2748260Y-232260D01*
X+2748260Y+250340D02*
X+2748260Y+265580D01*
X+2748260Y+346860D02*
X+2748260Y+377340D01*
X+2748260Y+443380D02*
X+2748260Y+473860D01*
X+2748260Y+758340D02*
X+2748260Y+773580D01*
X+2748260Y+1073300D02*
X+2748260Y+1088540D01*
X+2748260Y+1225700D02*
X+2748260Y+1240940D01*
X+2753340Y-1192380D02*
X+2753340Y-1172060D01*
X+2753340Y-1106020D02*
X+2753340Y-1085700D01*
X+2753340Y-968860D02*
X+2753340Y-953620D01*
X+2753340Y-923140D02*
X+2753340Y-907900D01*
X+2753340Y-496420D02*
X+2753340Y-481180D01*
X+2753340Y-445620D02*
X+2753340Y-430380D01*
X+2753340Y-318620D02*
X+2753340Y-298300D01*
X+2753340Y-247500D02*
X+2753340Y-227180D01*
X+2753340Y+250340D02*
X+2753340Y+265580D01*
X+2753340Y+346860D02*
X+2753340Y+382420D01*
X+2753340Y+438300D02*
X+2753340Y+473860D01*
X+2753340Y+758340D02*
X+2753340Y+773580D01*
X+2753340Y+1073300D02*
X+2753340Y+1088540D01*
X+2753340Y+1225700D02*
X+2753340Y+1240940D01*
X+2758420Y-1187300D02*
X+2758420Y-1172060D01*
X+2758420Y-1106020D02*
X+2758420Y-1090780D01*
X+2758420Y-968860D02*
X+2758420Y-953620D01*
X+2758420Y-923140D02*
X+2758420Y-907900D01*
X+2758420Y-496420D02*
X+2758420Y-481180D01*
X+2758420Y-445620D02*
X+2758420Y-430380D01*
X+2758420Y-323700D02*
X+2758420Y-308460D01*
X+2758420Y-242420D02*
X+2758420Y-227180D01*
X+2758420Y+250340D02*
X+2758420Y+265580D01*
X+2758420Y+346860D02*
X+2758420Y+362100D01*
X+2758420Y+367180D02*
X+2758420Y+382420D01*
X+2758420Y+438300D02*
X+2758420Y+453540D01*
X+2758420Y+458620D02*
X+2758420Y+473860D01*
X+2758420Y+758340D02*
X+2758420Y+773580D01*
X+2758420Y+1073300D02*
X+2758420Y+1088540D01*
X+2758420Y+1225700D02*
X+2758420Y+1240940D01*
X+2763500Y-1187300D02*
X+2763500Y-1172060D01*
X+2763500Y-1106020D02*
X+2763500Y-1090780D01*
X+2763500Y-968860D02*
X+2763500Y-953620D01*
X+2763500Y-923140D02*
X+2763500Y-907900D01*
X+2763500Y-496420D02*
X+2763500Y-481180D01*
X+2763500Y-445620D02*
X+2763500Y-430380D01*
X+2763500Y-328780D02*
X+2763500Y-308460D01*
X+2763500Y-242420D02*
X+2763500Y-222100D01*
X+2763500Y+250340D02*
X+2763500Y+265580D01*
X+2763500Y+346860D02*
X+2763500Y+362100D01*
X+2763500Y+367180D02*
X+2763500Y+382420D01*
X+2763500Y+438300D02*
X+2763500Y+453540D01*
X+2763500Y+458620D02*
X+2763500Y+473860D01*
X+2763500Y+758340D02*
X+2763500Y+773580D01*
X+2763500Y+1073300D02*
X+2763500Y+1088540D01*
X+2763500Y+1225700D02*
X+2763500Y+1240940D01*
X+2768580Y-1187300D02*
X+2768580Y-1166980D01*
X+2768580Y-1111100D02*
X+2768580Y-1090780D01*
X+2768580Y-1050140D02*
X+2768580Y-1014580D01*
X+2768580Y-968860D02*
X+2768580Y-953620D01*
X+2768580Y-938380D02*
X+2768580Y-887580D01*
X+2768580Y-852020D02*
X+2768580Y-816460D01*
X+2768580Y-745340D02*
X+2768580Y-714860D01*
X+2768580Y-699620D02*
X+2768580Y-684380D01*
X+2768580Y-633580D02*
X+2768580Y-603100D01*
X+2768580Y-496420D02*
X+2768580Y-481180D01*
X+2768580Y-445620D02*
X+2768580Y-430380D01*
X+2768580Y-328780D02*
X+2768580Y-313540D01*
X+2768580Y-237340D02*
X+2768580Y-222100D01*
X+2768580Y-191620D02*
X+2768580Y-176380D01*
X+2768580Y-130660D02*
X+2768580Y-115420D01*
X+2768580Y-84940D02*
X+2768580Y-69700D01*
X+2768580Y-59540D02*
X+2768580Y-39220D01*
X+2768580Y-23980D02*
X+2768580Y-8740D01*
X+2768580Y+1420D02*
X+2768580Y+21740D01*
X+2768580Y+62380D02*
X+2768580Y+92860D01*
X+2768580Y+143660D02*
X+2768580Y+158900D01*
X+2768580Y+174140D02*
X+2768580Y+199540D01*
X+2768580Y+235100D02*
X+2768580Y+285900D01*
X+2768580Y+346860D02*
X+2768580Y+362100D01*
X+2768580Y+367180D02*
X+2768580Y+387500D01*
X+2768580Y+433220D02*
X+2768580Y+453540D01*
X+2768580Y+458620D02*
X+2768580Y+473860D01*
X+2768580Y+524660D02*
X+2768580Y+560220D01*
X+2768580Y+611020D02*
X+2768580Y+626260D01*
X+2768580Y+641500D02*
X+2768580Y+666900D01*
X+2768580Y+712620D02*
X+2768580Y+727860D01*
X+2768580Y+743100D02*
X+2768580Y+793900D01*
X+2768580Y+829460D02*
X+2768580Y+865020D01*
X+2768580Y+915820D02*
X+2768580Y+931060D01*
X+2768580Y+941220D02*
X+2768580Y+961540D01*
X+2768580Y+1073300D02*
X+2768580Y+1088540D01*
X+2768580Y+1225700D02*
X+2768580Y+1240940D01*
X+2773660Y-1182220D02*
X+2773660Y-1166980D01*
X+2773660Y-1111100D02*
X+2773660Y-1095860D01*
X+2773660Y-1055220D02*
X+2773660Y-1009500D01*
X+2773660Y-968860D02*
X+2773660Y-953620D01*
X+2773660Y-938380D02*
X+2773660Y-887580D01*
X+2773660Y-862180D02*
X+2773660Y-806300D01*
X+2773660Y-750420D02*
X+2773660Y-704700D01*
X+2773660Y-699620D02*
X+2773660Y-684380D01*
X+2773660Y-643740D02*
X+2773660Y-598020D01*
X+2773660Y-491340D02*
X+2773660Y-476100D01*
X+2773660Y-450700D02*
X+2773660Y-435460D01*
X+2773660Y-328780D02*
X+2773660Y-313540D01*
X+2773660Y-191620D02*
X+2773660Y-176380D01*
X+2773660Y-130660D02*
X+2773660Y-115420D01*
X+2773660Y-84940D02*
X+2773660Y-69700D01*
X+2773660Y-64620D02*
X+2773660Y-39220D01*
X+2773660Y-23980D02*
X+2773660Y-8740D01*
X+2773660Y-3660D02*
X+2773660Y+21740D01*
X+2773660Y+52220D02*
X+2773660Y+97940D01*
X+2773660Y+143660D02*
X+2773660Y+158900D01*
X+2773660Y+163980D02*
X+2773660Y+209700D01*
X+2773660Y+235100D02*
X+2773660Y+285900D01*
X+2773660Y+346860D02*
X+2773660Y+362100D01*
X+2773660Y+372260D02*
X+2773660Y+387500D01*
X+2773660Y+433220D02*
X+2773660Y+448460D01*
X+2773660Y+458620D02*
X+2773660Y+473860D01*
X+2773660Y+519580D02*
X+2773660Y+565300D01*
X+2773660Y+611020D02*
X+2773660Y+626260D01*
X+2773660Y+631340D02*
X+2773660Y+677060D01*
X+2773660Y+712620D02*
X+2773660Y+727860D01*
X+2773660Y+743100D02*
X+2773660Y+793900D01*
X+2773660Y+824380D02*
X+2773660Y+870100D01*
X+2773660Y+915820D02*
X+2773660Y+931060D01*
X+2773660Y+936140D02*
X+2773660Y+961540D01*
X+2773660Y+1073300D02*
X+2773660Y+1088540D01*
X+2773660Y+1225700D02*
X+2773660Y+1240940D01*
X+2778740Y-1182220D02*
X+2778740Y-1161900D01*
X+2778740Y-1116180D02*
X+2778740Y-1095860D01*
X+2778740Y-1065380D02*
X+2778740Y-999340D01*
X+2778740Y-968860D02*
X+2778740Y-953620D01*
X+2778740Y-938380D02*
X+2778740Y-887580D01*
X+2778740Y-867260D02*
X+2778740Y-801220D01*
X+2778740Y-755500D02*
X+2778740Y-684380D01*
X+2778740Y-648820D02*
X+2778740Y-587860D01*
X+2778740Y-491340D02*
X+2778740Y-471020D01*
X+2778740Y-460860D02*
X+2778740Y-435460D01*
X+2778740Y-333860D02*
X+2778740Y-318620D01*
X+2778740Y-191620D02*
X+2778740Y-176380D01*
X+2778740Y-130660D02*
X+2778740Y-115420D01*
X+2778740Y-84940D02*
X+2778740Y-44300D01*
X+2778740Y-23980D02*
X+2778740Y+16660D01*
X+2778740Y+47140D02*
X+2778740Y+108100D01*
X+2778740Y+143660D02*
X+2778740Y+214780D01*
X+2778740Y+235100D02*
X+2778740Y+285900D01*
X+2778740Y+346860D02*
X+2778740Y+362100D01*
X+2778740Y+372260D02*
X+2778740Y+387500D01*
X+2778740Y+433220D02*
X+2778740Y+448460D01*
X+2778740Y+458620D02*
X+2778740Y+473860D01*
X+2778740Y+509420D02*
X+2778740Y+575460D01*
X+2778740Y+611020D02*
X+2778740Y+682140D01*
X+2778740Y+712620D02*
X+2778740Y+727860D01*
X+2778740Y+743100D02*
X+2778740Y+793900D01*
X+2778740Y+814220D02*
X+2778740Y+880260D01*
X+2778740Y+915820D02*
X+2778740Y+956460D01*
X+2778740Y+1073300D02*
X+2778740Y+1088540D01*
X+2778740Y+1225700D02*
X+2778740Y+1240940D01*
X+2783820Y-1177140D02*
X+2783820Y-1161900D01*
X+2783820Y-1116180D02*
X+2783820Y-1100940D01*
X+2783820Y-1065380D02*
X+2783820Y-1045060D01*
X+2783820Y-1019660D02*
X+2783820Y-999340D01*
X+2783820Y-968860D02*
X+2783820Y-953620D01*
X+2783820Y-923140D02*
X+2783820Y-907900D01*
X+2783820Y-872340D02*
X+2783820Y-852020D01*
X+2783820Y-821540D02*
X+2783820Y-796140D01*
X+2783820Y-760580D02*
X+2783820Y-740260D01*
X+2783820Y-714860D02*
X+2783820Y-684380D01*
X+2783820Y-653900D02*
X+2783820Y-633580D01*
X+2783820Y-608180D02*
X+2783820Y-587860D01*
X+2783820Y-486260D02*
X+2783820Y-440540D01*
X+2783820Y-333860D02*
X+2783820Y-318620D01*
X+2783820Y-191620D02*
X+2783820Y-176380D01*
X+2783820Y-130660D02*
X+2783820Y-115420D01*
X+2783820Y-84940D02*
X+2783820Y-59540D01*
X+2783820Y-23980D02*
X+2783820Y+1420D01*
X+2783820Y+42060D02*
X+2783820Y+62380D01*
X+2783820Y+87780D02*
X+2783820Y+108100D01*
X+2783820Y+143660D02*
X+2783820Y+174140D01*
X+2783820Y+194460D02*
X+2783820Y+214780D01*
X+2783820Y+250340D02*
X+2783820Y+265580D01*
X+2783820Y+346860D02*
X+2783820Y+362100D01*
X+2783820Y+372260D02*
X+2783820Y+392580D01*
X+2783820Y+428140D02*
X+2783820Y+448460D01*
X+2783820Y+458620D02*
X+2783820Y+473860D01*
X+2783820Y+509420D02*
X+2783820Y+529740D01*
X+2783820Y+555140D02*
X+2783820Y+575460D01*
X+2783820Y+611020D02*
X+2783820Y+641500D01*
X+2783820Y+661820D02*
X+2783820Y+682140D01*
X+2783820Y+712620D02*
X+2783820Y+727860D01*
X+2783820Y+758340D02*
X+2783820Y+773580D01*
X+2783820Y+814220D02*
X+2783820Y+834540D01*
X+2783820Y+859940D02*
X+2783820Y+880260D01*
X+2783820Y+915820D02*
X+2783820Y+941220D01*
X+2783820Y+1073300D02*
X+2783820Y+1088540D01*
X+2783820Y+1225700D02*
X+2783820Y+1240940D01*
X+2788900Y-1177140D02*
X+2788900Y-1161900D01*
X+2788900Y-1116180D02*
X+2788900Y-1100940D01*
X+2788900Y-1070460D02*
X+2788900Y-1050140D01*
X+2788900Y-1014580D02*
X+2788900Y-994260D01*
X+2788900Y-968860D02*
X+2788900Y-953620D01*
X+2788900Y-923140D02*
X+2788900Y-907900D01*
X+2788900Y-877420D02*
X+2788900Y-857100D01*
X+2788900Y-811380D02*
X+2788900Y-796140D01*
X+2788900Y-765660D02*
X+2788900Y-745340D01*
X+2788900Y-709780D02*
X+2788900Y-684380D01*
X+2788900Y-658980D02*
X+2788900Y-638660D01*
X+2788900Y-598020D02*
X+2788900Y-582780D01*
X+2788900Y-481180D02*
X+2788900Y-450700D01*
X+2788900Y-333860D02*
X+2788900Y-318620D01*
X+2788900Y-191620D02*
X+2788900Y-176380D01*
X+2788900Y-130660D02*
X+2788900Y-115420D01*
X+2788900Y-84940D02*
X+2788900Y-64620D01*
X+2788900Y-23980D02*
X+2788900Y-3660D01*
X+2788900Y+36980D02*
X+2788900Y+57300D01*
X+2788900Y+97940D02*
X+2788900Y+113180D01*
X+2788900Y+143660D02*
X+2788900Y+163980D01*
X+2788900Y+199540D02*
X+2788900Y+219860D01*
X+2788900Y+250340D02*
X+2788900Y+265580D01*
X+2788900Y+346860D02*
X+2788900Y+362100D01*
X+2788900Y+377340D02*
X+2788900Y+392580D01*
X+2788900Y+428140D02*
X+2788900Y+443380D01*
X+2788900Y+458620D02*
X+2788900Y+473860D01*
X+2788900Y+504340D02*
X+2788900Y+524660D01*
X+2788900Y+560220D02*
X+2788900Y+580540D01*
X+2788900Y+611020D02*
X+2788900Y+631340D01*
X+2788900Y+666900D02*
X+2788900Y+687220D01*
X+2788900Y+712620D02*
X+2788900Y+727860D01*
X+2788900Y+758340D02*
X+2788900Y+773580D01*
X+2788900Y+809140D02*
X+2788900Y+829460D01*
X+2788900Y+865020D02*
X+2788900Y+885340D01*
X+2788900Y+915820D02*
X+2788900Y+936140D01*
X+2788900Y+1073300D02*
X+2788900Y+1088540D01*
X+2788900Y+1225700D02*
X+2788900Y+1240940D01*
X+2793980Y-1177140D02*
X+2793980Y-1156820D01*
X+2793980Y-1121260D02*
X+2793980Y-1100940D01*
X+2793980Y-1070460D02*
X+2793980Y-1055220D01*
X+2793980Y-1009500D02*
X+2793980Y-994260D01*
X+2793980Y-968860D02*
X+2793980Y-953620D01*
X+2793980Y-923140D02*
X+2793980Y-907900D01*
X+2793980Y-877420D02*
X+2793980Y-862180D01*
X+2793980Y-811380D02*
X+2793980Y-796140D01*
X+2793980Y-765660D02*
X+2793980Y-750420D01*
X+2793980Y-704700D02*
X+2793980Y-684380D01*
X+2793980Y-658980D02*
X+2793980Y-643740D01*
X+2793980Y-598020D02*
X+2793980Y-582780D01*
X+2793980Y-486260D02*
X+2793980Y-460860D01*
X+2793980Y-333860D02*
X+2793980Y-318620D01*
X+2793980Y-191620D02*
X+2793980Y-176380D01*
X+2793980Y-130660D02*
X+2793980Y-115420D01*
X+2793980Y-84940D02*
X+2793980Y-69700D01*
X+2793980Y-23980D02*
X+2793980Y-8740D01*
X+2793980Y+36980D02*
X+2793980Y+52220D01*
X+2793980Y+97940D02*
X+2793980Y+113180D01*
X+2793980Y+143660D02*
X+2793980Y+163980D01*
X+2793980Y+204620D02*
X+2793980Y+219860D01*
X+2793980Y+250340D02*
X+2793980Y+265580D01*
X+2793980Y+346860D02*
X+2793980Y+362100D01*
X+2793980Y+377340D02*
X+2793980Y+392580D01*
X+2793980Y+428140D02*
X+2793980Y+443380D01*
X+2793980Y+458620D02*
X+2793980Y+473860D01*
X+2793980Y+504340D02*
X+2793980Y+519580D01*
X+2793980Y+565300D02*
X+2793980Y+580540D01*
X+2793980Y+611020D02*
X+2793980Y+631340D01*
X+2793980Y+671980D02*
X+2793980Y+687220D01*
X+2793980Y+712620D02*
X+2793980Y+727860D01*
X+2793980Y+758340D02*
X+2793980Y+773580D01*
X+2793980Y+809140D02*
X+2793980Y+824380D01*
X+2793980Y+870100D02*
X+2793980Y+885340D01*
X+2793980Y+915820D02*
X+2793980Y+931060D01*
X+2793980Y+1073300D02*
X+2793980Y+1088540D01*
X+2793980Y+1225700D02*
X+2793980Y+1306980D01*
X+2799060Y-1172060D02*
X+2799060Y-1156820D01*
X+2799060Y-1121260D02*
X+2799060Y-1106020D01*
X+2799060Y-1075540D02*
X+2799060Y-1055220D01*
X+2799060Y-1009500D02*
X+2799060Y-989180D01*
X+2799060Y-968860D02*
X+2799060Y-953620D01*
X+2799060Y-923140D02*
X+2799060Y-907900D01*
X+2799060Y-811380D02*
X+2799060Y-796140D01*
X+2799060Y-770740D02*
X+2799060Y-750420D01*
X+2799060Y-704700D02*
X+2799060Y-684380D01*
X+2799060Y-664060D02*
X+2799060Y-648820D01*
X+2799060Y-592940D02*
X+2799060Y-577700D01*
X+2799060Y-496420D02*
X+2799060Y-455780D01*
X+2799060Y-333860D02*
X+2799060Y-318620D01*
X+2799060Y-191620D02*
X+2799060Y-176380D01*
X+2799060Y-130660D02*
X+2799060Y-115420D01*
X+2799060Y-84940D02*
X+2799060Y-69700D01*
X+2799060Y-23980D02*
X+2799060Y-8740D01*
X+2799060Y+31900D02*
X+2799060Y+47140D01*
X+2799060Y+103020D02*
X+2799060Y+118260D01*
X+2799060Y+143660D02*
X+2799060Y+158900D01*
X+2799060Y+204620D02*
X+2799060Y+219860D01*
X+2799060Y+250340D02*
X+2799060Y+265580D01*
X+2799060Y+346860D02*
X+2799060Y+362100D01*
X+2799060Y+377340D02*
X+2799060Y+397660D01*
X+2799060Y+423060D02*
X+2799060Y+443380D01*
X+2799060Y+458620D02*
X+2799060Y+473860D01*
X+2799060Y+499260D02*
X+2799060Y+519580D01*
X+2799060Y+565300D02*
X+2799060Y+585620D01*
X+2799060Y+611020D02*
X+2799060Y+626260D01*
X+2799060Y+671980D02*
X+2799060Y+687220D01*
X+2799060Y+712620D02*
X+2799060Y+727860D01*
X+2799060Y+758340D02*
X+2799060Y+773580D01*
X+2799060Y+804060D02*
X+2799060Y+824380D01*
X+2799060Y+870100D02*
X+2799060Y+890420D01*
X+2799060Y+915820D02*
X+2799060Y+931060D01*
X+2799060Y+1073300D02*
X+2799060Y+1088540D01*
X+2799060Y+1225700D02*
X+2799060Y+1306980D01*
X+2804140Y-1172060D02*
X+2804140Y-1156820D01*
X+2804140Y-1121260D02*
X+2804140Y-1106020D01*
X+2804140Y-1075540D02*
X+2804140Y-1060300D01*
X+2804140Y-1004420D02*
X+2804140Y-989180D01*
X+2804140Y-968860D02*
X+2804140Y-953620D01*
X+2804140Y-923140D02*
X+2804140Y-907900D01*
X+2804140Y-821540D02*
X+2804140Y-796140D01*
X+2804140Y-770740D02*
X+2804140Y-755500D01*
X+2804140Y-699620D02*
X+2804140Y-684380D01*
X+2804140Y-664060D02*
X+2804140Y-648820D01*
X+2804140Y-592940D02*
X+2804140Y-577700D01*
X+2804140Y-501500D02*
X+2804140Y-476100D01*
X+2804140Y-471020D02*
X+2804140Y-450700D01*
X+2804140Y-333860D02*
X+2804140Y-318620D01*
X+2804140Y-191620D02*
X+2804140Y-176380D01*
X+2804140Y-130660D02*
X+2804140Y-115420D01*
X+2804140Y-84940D02*
X+2804140Y-69700D01*
X+2804140Y-23980D02*
X+2804140Y-8740D01*
X+2804140Y+31900D02*
X+2804140Y+47140D01*
X+2804140Y+103020D02*
X+2804140Y+118260D01*
X+2804140Y+143660D02*
X+2804140Y+158900D01*
X+2804140Y+204620D02*
X+2804140Y+219860D01*
X+2804140Y+250340D02*
X+2804140Y+265580D01*
X+2804140Y+346860D02*
X+2804140Y+362100D01*
X+2804140Y+382420D02*
X+2804140Y+397660D01*
X+2804140Y+423060D02*
X+2804140Y+438300D01*
X+2804140Y+458620D02*
X+2804140Y+473860D01*
X+2804140Y+499260D02*
X+2804140Y+514500D01*
X+2804140Y+570380D02*
X+2804140Y+585620D01*
X+2804140Y+611020D02*
X+2804140Y+626260D01*
X+2804140Y+671980D02*
X+2804140Y+687220D01*
X+2804140Y+712620D02*
X+2804140Y+727860D01*
X+2804140Y+758340D02*
X+2804140Y+773580D01*
X+2804140Y+804060D02*
X+2804140Y+819300D01*
X+2804140Y+875180D02*
X+2804140Y+890420D01*
X+2804140Y+915820D02*
X+2804140Y+931060D01*
X+2804140Y+1073300D02*
X+2804140Y+1088540D01*
X+2804140Y+1225700D02*
X+2804140Y+1306980D01*
X+2809220Y-1172060D02*
X+2809220Y-1151740D01*
X+2809220Y-1126340D02*
X+2809220Y-1106020D01*
X+2809220Y-1075540D02*
X+2809220Y-1060300D01*
X+2809220Y-1004420D02*
X+2809220Y-989180D01*
X+2809220Y-968860D02*
X+2809220Y-953620D01*
X+2809220Y-923140D02*
X+2809220Y-907900D01*
X+2809220Y-852020D02*
X+2809220Y-796140D01*
X+2809220Y-770740D02*
X+2809220Y-755500D01*
X+2809220Y-699620D02*
X+2809220Y-684380D01*
X+2809220Y-664060D02*
X+2809220Y-577700D01*
X+2809220Y-506580D02*
X+2809220Y-486260D01*
X+2809220Y-465940D02*
X+2809220Y-450700D01*
X+2809220Y-425300D02*
X+2809220Y-415140D01*
X+2809220Y-333860D02*
X+2809220Y-318620D01*
X+2809220Y-191620D02*
X+2809220Y-176380D01*
X+2809220Y-130660D02*
X+2809220Y-115420D01*
X+2809220Y-84940D02*
X+2809220Y-69700D01*
X+2809220Y-23980D02*
X+2809220Y-8740D01*
X+2809220Y+31900D02*
X+2809220Y+118260D01*
X+2809220Y+143660D02*
X+2809220Y+158900D01*
X+2809220Y+204620D02*
X+2809220Y+219860D01*
X+2809220Y+250340D02*
X+2809220Y+265580D01*
X+2809220Y+346860D02*
X+2809220Y+362100D01*
X+2809220Y+382420D02*
X+2809220Y+397660D01*
X+2809220Y+423060D02*
X+2809220Y+438300D01*
X+2809220Y+458620D02*
X+2809220Y+473860D01*
X+2809220Y+499260D02*
X+2809220Y+514500D01*
X+2809220Y+570380D02*
X+2809220Y+585620D01*
X+2809220Y+611020D02*
X+2809220Y+626260D01*
X+2809220Y+671980D02*
X+2809220Y+687220D01*
X+2809220Y+712620D02*
X+2809220Y+727860D01*
X+2809220Y+758340D02*
X+2809220Y+773580D01*
X+2809220Y+804060D02*
X+2809220Y+819300D01*
X+2809220Y+875180D02*
X+2809220Y+890420D01*
X+2809220Y+915820D02*
X+2809220Y+931060D01*
X+2809220Y+1073300D02*
X+2809220Y+1088540D01*
X+2809220Y+1225700D02*
X+2809220Y+1240940D01*
X+2814300Y-1166980D02*
X+2814300Y-1151740D01*
X+2814300Y-1126340D02*
X+2814300Y-1111100D01*
X+2814300Y-1075540D02*
X+2814300Y-1060300D01*
X+2814300Y-1004420D02*
X+2814300Y-989180D01*
X+2814300Y-968860D02*
X+2814300Y-953620D01*
X+2814300Y-923140D02*
X+2814300Y-907900D01*
X+2814300Y-862180D02*
X+2814300Y-796140D01*
X+2814300Y-770740D02*
X+2814300Y-755500D01*
X+2814300Y-699620D02*
X+2814300Y-684380D01*
X+2814300Y-664060D02*
X+2814300Y-577700D01*
X+2814300Y-506580D02*
X+2814300Y-491340D01*
X+2814300Y-460860D02*
X+2814300Y-445620D01*
X+2814300Y-430380D02*
X+2814300Y-410060D01*
X+2814300Y-333860D02*
X+2814300Y-318620D01*
X+2814300Y-191620D02*
X+2814300Y-176380D01*
X+2814300Y-130660D02*
X+2814300Y-115420D01*
X+2814300Y-84940D02*
X+2814300Y-69700D01*
X+2814300Y-23980D02*
X+2814300Y-8740D01*
X+2814300Y+31900D02*
X+2814300Y+118260D01*
X+2814300Y+143660D02*
X+2814300Y+158900D01*
X+2814300Y+204620D02*
X+2814300Y+219860D01*
X+2814300Y+250340D02*
X+2814300Y+265580D01*
X+2814300Y+346860D02*
X+2814300Y+362100D01*
X+2814300Y+382420D02*
X+2814300Y+402740D01*
X+2814300Y+417980D02*
X+2814300Y+438300D01*
X+2814300Y+458620D02*
X+2814300Y+473860D01*
X+2814300Y+499260D02*
X+2814300Y+514500D01*
X+2814300Y+570380D02*
X+2814300Y+585620D01*
X+2814300Y+611020D02*
X+2814300Y+626260D01*
X+2814300Y+671980D02*
X+2814300Y+687220D01*
X+2814300Y+712620D02*
X+2814300Y+727860D01*
X+2814300Y+758340D02*
X+2814300Y+773580D01*
X+2814300Y+804060D02*
X+2814300Y+819300D01*
X+2814300Y+875180D02*
X+2814300Y+890420D01*
X+2814300Y+915820D02*
X+2814300Y+931060D01*
X+2814300Y+1073300D02*
X+2814300Y+1088540D01*
X+2814300Y+1225700D02*
X+2814300Y+1240940D01*
X+2819380Y-1166980D02*
X+2819380Y-1151740D01*
X+2819380Y-1126340D02*
X+2819380Y-1111100D01*
X+2819380Y-1075540D02*
X+2819380Y-1060300D01*
X+2819380Y-1004420D02*
X+2819380Y-989180D01*
X+2819380Y-968860D02*
X+2819380Y-953620D01*
X+2819380Y-923140D02*
X+2819380Y-907900D01*
X+2819380Y-872340D02*
X+2819380Y-821540D01*
X+2819380Y-811380D02*
X+2819380Y-796140D01*
X+2819380Y-770740D02*
X+2819380Y-755500D01*
X+2819380Y-699620D02*
X+2819380Y-684380D01*
X+2819380Y-664060D02*
X+2819380Y-577700D01*
X+2819380Y-511660D02*
X+2819380Y-496420D01*
X+2819380Y-460860D02*
X+2819380Y-440540D01*
X+2819380Y-430380D02*
X+2819380Y-415140D01*
X+2819380Y-333860D02*
X+2819380Y-318620D01*
X+2819380Y-191620D02*
X+2819380Y-176380D01*
X+2819380Y-130660D02*
X+2819380Y-115420D01*
X+2819380Y-84940D02*
X+2819380Y-69700D01*
X+2819380Y-23980D02*
X+2819380Y-8740D01*
X+2819380Y+31900D02*
X+2819380Y+118260D01*
X+2819380Y+143660D02*
X+2819380Y+158900D01*
X+2819380Y+204620D02*
X+2819380Y+219860D01*
X+2819380Y+250340D02*
X+2819380Y+265580D01*
X+2819380Y+346860D02*
X+2819380Y+362100D01*
X+2819380Y+387500D02*
X+2819380Y+402740D01*
X+2819380Y+417980D02*
X+2819380Y+433220D01*
X+2819380Y+458620D02*
X+2819380Y+473860D01*
X+2819380Y+499260D02*
X+2819380Y+514500D01*
X+2819380Y+570380D02*
X+2819380Y+585620D01*
X+2819380Y+611020D02*
X+2819380Y+626260D01*
X+2819380Y+671980D02*
X+2819380Y+687220D01*
X+2819380Y+712620D02*
X+2819380Y+727860D01*
X+2819380Y+758340D02*
X+2819380Y+773580D01*
X+2819380Y+804060D02*
X+2819380Y+819300D01*
X+2819380Y+875180D02*
X+2819380Y+890420D01*
X+2819380Y+915820D02*
X+2819380Y+931060D01*
X+2819380Y+1073300D02*
X+2819380Y+1088540D01*
X+2819380Y+1225700D02*
X+2819380Y+1240940D01*
X+2824460Y-1166980D02*
X+2824460Y-1146660D01*
X+2824460Y-1131420D02*
X+2824460Y-1111100D01*
X+2824460Y-1075540D02*
X+2824460Y-1060300D01*
X+2824460Y-1004420D02*
X+2824460Y-989180D01*
X+2824460Y-968860D02*
X+2824460Y-953620D01*
X+2824460Y-923140D02*
X+2824460Y-907900D01*
X+2824460Y-872340D02*
X+2824460Y-846940D01*
X+2824460Y-811380D02*
X+2824460Y-796140D01*
X+2824460Y-770740D02*
X+2824460Y-755500D01*
X+2824460Y-699620D02*
X+2824460Y-684380D01*
X+2824460Y-664060D02*
X+2824460Y-648820D01*
X+2824460Y-511660D02*
X+2824460Y-496420D01*
X+2824460Y-455780D02*
X+2824460Y-415140D01*
X+2824460Y-328780D02*
X+2824460Y-313540D01*
X+2824460Y-232260D02*
X+2824460Y-217020D01*
X+2824460Y-191620D02*
X+2824460Y-176380D01*
X+2824460Y-130660D02*
X+2824460Y-115420D01*
X+2824460Y-84940D02*
X+2824460Y-69700D01*
X+2824460Y-23980D02*
X+2824460Y-8740D01*
X+2824460Y+31900D02*
X+2824460Y+47140D01*
X+2824460Y+143660D02*
X+2824460Y+158900D01*
X+2824460Y+204620D02*
X+2824460Y+219860D01*
X+2824460Y+250340D02*
X+2824460Y+265580D01*
X+2824460Y+346860D02*
X+2824460Y+362100D01*
X+2824460Y+387500D02*
X+2824460Y+402740D01*
X+2824460Y+417980D02*
X+2824460Y+433220D01*
X+2824460Y+458620D02*
X+2824460Y+473860D01*
X+2824460Y+499260D02*
X+2824460Y+514500D01*
X+2824460Y+570380D02*
X+2824460Y+585620D01*
X+2824460Y+611020D02*
X+2824460Y+626260D01*
X+2824460Y+671980D02*
X+2824460Y+687220D01*
X+2824460Y+712620D02*
X+2824460Y+727860D01*
X+2824460Y+758340D02*
X+2824460Y+773580D01*
X+2824460Y+804060D02*
X+2824460Y+819300D01*
X+2824460Y+875180D02*
X+2824460Y+890420D01*
X+2824460Y+915820D02*
X+2824460Y+931060D01*
X+2824460Y+1073300D02*
X+2824460Y+1088540D01*
X+2824460Y+1225700D02*
X+2824460Y+1240940D01*
X+2829540Y-1161900D02*
X+2829540Y-1146660D01*
X+2829540Y-1131420D02*
X+2829540Y-1116180D01*
X+2829540Y-1075540D02*
X+2829540Y-1060300D01*
X+2829540Y-1004420D02*
X+2829540Y-989180D01*
X+2829540Y-968860D02*
X+2829540Y-953620D01*
X+2829540Y-923140D02*
X+2829540Y-907900D01*
X+2829540Y-877420D02*
X+2829540Y-857100D01*
X+2829540Y-811380D02*
X+2829540Y-796140D01*
X+2829540Y-770740D02*
X+2829540Y-755500D01*
X+2829540Y-699620D02*
X+2829540Y-684380D01*
X+2829540Y-664060D02*
X+2829540Y-648820D01*
X+2829540Y-511660D02*
X+2829540Y-496420D01*
X+2829540Y-450700D02*
X+2829540Y-415140D01*
X+2829540Y-328780D02*
X+2829540Y-313540D01*
X+2829540Y-237340D02*
X+2829540Y-217020D01*
X+2829540Y-191620D02*
X+2829540Y-176380D01*
X+2829540Y-130660D02*
X+2829540Y-115420D01*
X+2829540Y-84940D02*
X+2829540Y-69700D01*
X+2829540Y-23980D02*
X+2829540Y-8740D01*
X+2829540Y+31900D02*
X+2829540Y+47140D01*
X+2829540Y+143660D02*
X+2829540Y+158900D01*
X+2829540Y+204620D02*
X+2829540Y+219860D01*
X+2829540Y+250340D02*
X+2829540Y+265580D01*
X+2829540Y+346860D02*
X+2829540Y+362100D01*
X+2829540Y+387500D02*
X+2829540Y+407820D01*
X+2829540Y+417980D02*
X+2829540Y+433220D01*
X+2829540Y+458620D02*
X+2829540Y+473860D01*
X+2829540Y+499260D02*
X+2829540Y+514500D01*
X+2829540Y+570380D02*
X+2829540Y+585620D01*
X+2829540Y+611020D02*
X+2829540Y+626260D01*
X+2829540Y+671980D02*
X+2829540Y+687220D01*
X+2829540Y+712620D02*
X+2829540Y+727860D01*
X+2829540Y+758340D02*
X+2829540Y+773580D01*
X+2829540Y+804060D02*
X+2829540Y+819300D01*
X+2829540Y+875180D02*
X+2829540Y+890420D01*
X+2829540Y+915820D02*
X+2829540Y+931060D01*
X+2829540Y+1012340D02*
X+2829540Y+1027580D01*
X+2829540Y+1073300D02*
X+2829540Y+1088540D01*
X+2829540Y+1225700D02*
X+2829540Y+1240940D01*
X+2834620Y-1161900D02*
X+2834620Y-1141580D01*
X+2834620Y-1136500D02*
X+2834620Y-1116180D01*
X+2834620Y-1075540D02*
X+2834620Y-1055220D01*
X+2834620Y-1009500D02*
X+2834620Y-989180D01*
X+2834620Y-968860D02*
X+2834620Y-953620D01*
X+2834620Y-923140D02*
X+2834620Y-907900D01*
X+2834620Y-877420D02*
X+2834620Y-862180D01*
X+2834620Y-811380D02*
X+2834620Y-796140D01*
X+2834620Y-770740D02*
X+2834620Y-750420D01*
X+2834620Y-704700D02*
X+2834620Y-684380D01*
X+2834620Y-664060D02*
X+2834620Y-643740D01*
X+2834620Y-511660D02*
X+2834620Y-496420D01*
X+2834620Y-445620D02*
X+2834620Y-420220D01*
X+2834620Y-328780D02*
X+2834620Y-308460D01*
X+2834620Y-237340D02*
X+2834620Y-222100D01*
X+2834620Y-191620D02*
X+2834620Y-176380D01*
X+2834620Y-130660D02*
X+2834620Y-115420D01*
X+2834620Y-84940D02*
X+2834620Y-69700D01*
X+2834620Y-23980D02*
X+2834620Y-8740D01*
X+2834620Y+31900D02*
X+2834620Y+52220D01*
X+2834620Y+143660D02*
X+2834620Y+158900D01*
X+2834620Y+204620D02*
X+2834620Y+219860D01*
X+2834620Y+250340D02*
X+2834620Y+265580D01*
X+2834620Y+346860D02*
X+2834620Y+362100D01*
X+2834620Y+392580D02*
X+2834620Y+407820D01*
X+2834620Y+412900D02*
X+2834620Y+428140D01*
X+2834620Y+458620D02*
X+2834620Y+473860D01*
X+2834620Y+499260D02*
X+2834620Y+519580D01*
X+2834620Y+565300D02*
X+2834620Y+585620D01*
X+2834620Y+611020D02*
X+2834620Y+626260D01*
X+2834620Y+671980D02*
X+2834620Y+687220D01*
X+2834620Y+712620D02*
X+2834620Y+727860D01*
X+2834620Y+758340D02*
X+2834620Y+773580D01*
X+2834620Y+804060D02*
X+2834620Y+824380D01*
X+2834620Y+870100D02*
X+2834620Y+890420D01*
X+2834620Y+915820D02*
X+2834620Y+931060D01*
X+2834620Y+1012340D02*
X+2834620Y+1027580D01*
X+2834620Y+1073300D02*
X+2834620Y+1088540D01*
X+2834620Y+1225700D02*
X+2834620Y+1240940D01*
X+2839700Y-1156820D02*
X+2839700Y-1141580D01*
X+2839700Y-1136500D02*
X+2839700Y-1121260D01*
X+2839700Y-1070460D02*
X+2839700Y-1055220D01*
X+2839700Y-1009500D02*
X+2839700Y-994260D01*
X+2839700Y-968860D02*
X+2839700Y-953620D01*
X+2839700Y-923140D02*
X+2839700Y-907900D01*
X+2839700Y-877420D02*
X+2839700Y-862180D01*
X+2839700Y-816460D02*
X+2839700Y-796140D01*
X+2839700Y-765660D02*
X+2839700Y-750420D01*
X+2839700Y-704700D02*
X+2839700Y-684380D01*
X+2839700Y-658980D02*
X+2839700Y-643740D01*
X+2839700Y-592940D02*
X+2839700Y-577700D01*
X+2839700Y-511660D02*
X+2839700Y-491340D01*
X+2839700Y-445620D02*
X+2839700Y-420220D01*
X+2839700Y-323700D02*
X+2839700Y-303380D01*
X+2839700Y-242420D02*
X+2839700Y-222100D01*
X+2839700Y-191620D02*
X+2839700Y-176380D01*
X+2839700Y-135740D02*
X+2839700Y-115420D01*
X+2839700Y-84940D02*
X+2839700Y-69700D01*
X+2839700Y-23980D02*
X+2839700Y-8740D01*
X+2839700Y+36980D02*
X+2839700Y+52220D01*
X+2839700Y+103020D02*
X+2839700Y+118260D01*
X+2839700Y+143660D02*
X+2839700Y+158900D01*
X+2839700Y+204620D02*
X+2839700Y+219860D01*
X+2839700Y+250340D02*
X+2839700Y+265580D01*
X+2839700Y+346860D02*
X+2839700Y+362100D01*
X+2839700Y+392580D02*
X+2839700Y+407820D01*
X+2839700Y+412900D02*
X+2839700Y+428140D01*
X+2839700Y+458620D02*
X+2839700Y+473860D01*
X+2839700Y+504340D02*
X+2839700Y+519580D01*
X+2839700Y+565300D02*
X+2839700Y+580540D01*
X+2839700Y+611020D02*
X+2839700Y+626260D01*
X+2839700Y+671980D02*
X+2839700Y+687220D01*
X+2839700Y+712620D02*
X+2839700Y+727860D01*
X+2839700Y+758340D02*
X+2839700Y+773580D01*
X+2839700Y+809140D02*
X+2839700Y+824380D01*
X+2839700Y+870100D02*
X+2839700Y+885340D01*
X+2839700Y+915820D02*
X+2839700Y+931060D01*
X+2839700Y+1012340D02*
X+2839700Y+1027580D01*
X+2839700Y+1073300D02*
X+2839700Y+1088540D01*
X+2839700Y+1225700D02*
X+2839700Y+1240940D01*
X+2844780Y-1156820D02*
X+2844780Y-1141580D01*
X+2844780Y-1136500D02*
X+2844780Y-1121260D01*
X+2844780Y-1070460D02*
X+2844780Y-1050140D01*
X+2844780Y-1014580D02*
X+2844780Y-994260D01*
X+2844780Y-968860D02*
X+2844780Y-953620D01*
X+2844780Y-923140D02*
X+2844780Y-907900D01*
X+2844780Y-877420D02*
X+2844780Y-862180D01*
X+2844780Y-821540D02*
X+2844780Y-796140D01*
X+2844780Y-765660D02*
X+2844780Y-745340D01*
X+2844780Y-709780D02*
X+2844780Y-684380D01*
X+2844780Y-658980D02*
X+2844780Y-638660D01*
X+2844780Y-598020D02*
X+2844780Y-582780D01*
X+2844780Y-506580D02*
X+2844780Y-491340D01*
X+2844780Y-450700D02*
X+2844780Y-415140D01*
X+2844780Y-318620D02*
X+2844780Y-298300D01*
X+2844780Y-247500D02*
X+2844780Y-227180D01*
X+2844780Y-191620D02*
X+2844780Y-171300D01*
X+2844780Y-135740D02*
X+2844780Y-115420D01*
X+2844780Y-84940D02*
X+2844780Y-69700D01*
X+2844780Y-23980D02*
X+2844780Y-8740D01*
X+2844780Y+36980D02*
X+2844780Y+57300D01*
X+2844780Y+97940D02*
X+2844780Y+113180D01*
X+2844780Y+143660D02*
X+2844780Y+158900D01*
X+2844780Y+204620D02*
X+2844780Y+219860D01*
X+2844780Y+250340D02*
X+2844780Y+265580D01*
X+2844780Y+346860D02*
X+2844780Y+362100D01*
X+2844780Y+392580D02*
X+2844780Y+407820D01*
X+2844780Y+412900D02*
X+2844780Y+428140D01*
X+2844780Y+458620D02*
X+2844780Y+473860D01*
X+2844780Y+504340D02*
X+2844780Y+524660D01*
X+2844780Y+560220D02*
X+2844780Y+580540D01*
X+2844780Y+611020D02*
X+2844780Y+626260D01*
X+2844780Y+671980D02*
X+2844780Y+687220D01*
X+2844780Y+712620D02*
X+2844780Y+727860D01*
X+2844780Y+758340D02*
X+2844780Y+773580D01*
X+2844780Y+809140D02*
X+2844780Y+829460D01*
X+2844780Y+865020D02*
X+2844780Y+885340D01*
X+2844780Y+915820D02*
X+2844780Y+931060D01*
X+2844780Y+1012340D02*
X+2844780Y+1032660D01*
X+2844780Y+1068220D02*
X+2844780Y+1083460D01*
X+2844780Y+1225700D02*
X+2844780Y+1240940D01*
X+2849860Y-1156820D02*
X+2849860Y-1141580D01*
X+2849860Y-1136500D02*
X+2849860Y-1121260D01*
X+2849860Y-1065380D02*
X+2849860Y-1045060D01*
X+2849860Y-1019660D02*
X+2849860Y-999340D01*
X+2849860Y-968860D02*
X+2849860Y-953620D01*
X+2849860Y-923140D02*
X+2849860Y-907900D01*
X+2849860Y-877420D02*
X+2849860Y-857100D01*
X+2849860Y-826620D02*
X+2849860Y-796140D01*
X+2849860Y-760580D02*
X+2849860Y-740260D01*
X+2849860Y-714860D02*
X+2849860Y-684380D01*
X+2849860Y-653900D02*
X+2849860Y-633580D01*
X+2849860Y-603100D02*
X+2849860Y-582780D01*
X+2849860Y-506580D02*
X+2849860Y-481180D01*
X+2849860Y-460860D02*
X+2849860Y-410060D01*
X+2849860Y-318620D02*
X+2849860Y-288140D01*
X+2849860Y-257660D02*
X+2849860Y-232260D01*
X+2849860Y-186540D02*
X+2849860Y-166220D01*
X+2849860Y-145900D02*
X+2849860Y-115420D01*
X+2849860Y-84940D02*
X+2849860Y-69700D01*
X+2849860Y-23980D02*
X+2849860Y-8740D01*
X+2849860Y+42060D02*
X+2849860Y+62380D01*
X+2849860Y+92860D02*
X+2849860Y+113180D01*
X+2849860Y+143660D02*
X+2849860Y+158900D01*
X+2849860Y+204620D02*
X+2849860Y+219860D01*
X+2849860Y+250340D02*
X+2849860Y+265580D01*
X+2849860Y+346860D02*
X+2849860Y+362100D01*
X+2849860Y+397660D02*
X+2849860Y+423060D01*
X+2849860Y+458620D02*
X+2849860Y+473860D01*
X+2849860Y+509420D02*
X+2849860Y+529740D01*
X+2849860Y+555140D02*
X+2849860Y+575460D01*
X+2849860Y+611020D02*
X+2849860Y+626260D01*
X+2849860Y+671980D02*
X+2849860Y+687220D01*
X+2849860Y+712620D02*
X+2849860Y+727860D01*
X+2849860Y+758340D02*
X+2849860Y+773580D01*
X+2849860Y+814220D02*
X+2849860Y+834540D01*
X+2849860Y+859940D02*
X+2849860Y+880260D01*
X+2849860Y+915820D02*
X+2849860Y+931060D01*
X+2849860Y+1017420D02*
X+2849860Y+1037740D01*
X+2849860Y+1063140D02*
X+2849860Y+1083460D01*
X+2849860Y+1225700D02*
X+2849860Y+1240940D01*
X+2854940Y-1151740D02*
X+2854940Y-1126340D01*
X+2854940Y-1065380D02*
X+2854940Y-999340D01*
X+2854940Y-968860D02*
X+2854940Y-953620D01*
X+2854940Y-923140D02*
X+2854940Y-887580D01*
X+2854940Y-872340D02*
X+2854940Y-796140D01*
X+2854940Y-755500D02*
X+2854940Y-684380D01*
X+2854940Y-653900D02*
X+2854940Y-587860D01*
X+2854940Y-501500D02*
X+2854940Y-435460D01*
X+2854940Y-425300D02*
X+2854940Y-399900D01*
X+2854940Y-313540D02*
X+2854940Y-237340D01*
X+2854940Y-186540D02*
X+2854940Y-135740D01*
X+2854940Y-130660D02*
X+2854940Y-115420D01*
X+2854940Y-84940D02*
X+2854940Y-69700D01*
X+2854940Y-23980D02*
X+2854940Y-8740D01*
X+2854940Y+42060D02*
X+2854940Y+108100D01*
X+2854940Y+143660D02*
X+2854940Y+158900D01*
X+2854940Y+204620D02*
X+2854940Y+219860D01*
X+2854940Y+250340D02*
X+2854940Y+285900D01*
X+2854940Y+346860D02*
X+2854940Y+362100D01*
X+2854940Y+397660D02*
X+2854940Y+423060D01*
X+2854940Y+458620D02*
X+2854940Y+473860D01*
X+2854940Y+509420D02*
X+2854940Y+575460D01*
X+2854940Y+611020D02*
X+2854940Y+626260D01*
X+2854940Y+671980D02*
X+2854940Y+687220D01*
X+2854940Y+712620D02*
X+2854940Y+727860D01*
X+2854940Y+758340D02*
X+2854940Y+793900D01*
X+2854940Y+814220D02*
X+2854940Y+880260D01*
X+2854940Y+915820D02*
X+2854940Y+931060D01*
X+2854940Y+1017420D02*
X+2854940Y+1078380D01*
X+2854940Y+1225700D02*
X+2854940Y+1240940D01*
X+2860020Y-1151740D02*
X+2860020Y-1126340D01*
X+2860020Y-1055220D02*
X+2860020Y-1009500D01*
X+2860020Y-968860D02*
X+2860020Y-953620D01*
X+2860020Y-918060D02*
X+2860020Y-887580D01*
X+2860020Y-867260D02*
X+2860020Y-816460D01*
X+2860020Y-811380D02*
X+2860020Y-796140D01*
X+2860020Y-750420D02*
X+2860020Y-704700D01*
X+2860020Y-699620D02*
X+2860020Y-684380D01*
X+2860020Y-643740D02*
X+2860020Y-592940D01*
X+2860020Y-496420D02*
X+2860020Y-440540D01*
X+2860020Y-420220D02*
X+2860020Y-404980D01*
X+2860020Y-303380D02*
X+2860020Y-242420D01*
X+2860020Y-181460D02*
X+2860020Y-140820D01*
X+2860020Y-130660D02*
X+2860020Y-115420D01*
X+2860020Y-84940D02*
X+2860020Y-69700D01*
X+2860020Y-23980D02*
X+2860020Y-8740D01*
X+2860020Y+52220D02*
X+2860020Y+103020D01*
X+2860020Y+143660D02*
X+2860020Y+158900D01*
X+2860020Y+204620D02*
X+2860020Y+219860D01*
X+2860020Y+255420D02*
X+2860020Y+285900D01*
X+2860020Y+346860D02*
X+2860020Y+362100D01*
X+2860020Y+397660D02*
X+2860020Y+423060D01*
X+2860020Y+458620D02*
X+2860020Y+473860D01*
X+2860020Y+519580D02*
X+2860020Y+565300D01*
X+2860020Y+611020D02*
X+2860020Y+626260D01*
X+2860020Y+671980D02*
X+2860020Y+687220D01*
X+2860020Y+712620D02*
X+2860020Y+727860D01*
X+2860020Y+763420D02*
X+2860020Y+793900D01*
X+2860020Y+824380D02*
X+2860020Y+870100D01*
X+2860020Y+915820D02*
X+2860020Y+931060D01*
X+2860020Y+1022500D02*
X+2860020Y+1073300D01*
X+2860020Y+1225700D02*
X+2860020Y+1240940D01*
X+2865100Y-1151740D02*
X+2865100Y-1126340D01*
X+2865100Y-1050140D02*
X+2865100Y-1019660D01*
X+2865100Y-968860D02*
X+2865100Y-953620D01*
X+2865100Y-912980D02*
X+2865100Y-887580D01*
X+2865100Y-862180D02*
X+2865100Y-826620D01*
X+2865100Y-806300D02*
X+2865100Y-791060D01*
X+2865100Y-745340D02*
X+2865100Y-709780D01*
X+2865100Y-699620D02*
X+2865100Y-684380D01*
X+2865100Y-633580D02*
X+2865100Y-603100D01*
X+2865100Y-486260D02*
X+2865100Y-455780D01*
X+2865100Y-415140D02*
X+2865100Y-410060D01*
X+2865100Y-293220D02*
X+2865100Y-252580D01*
X+2865100Y-171300D02*
X+2865100Y-145900D01*
X+2865100Y-130660D02*
X+2865100Y-115420D01*
X+2865100Y-84940D02*
X+2865100Y-69700D01*
X+2865100Y-23980D02*
X+2865100Y-8740D01*
X+2865100Y+62380D02*
X+2865100Y+92860D01*
X+2865100Y+143660D02*
X+2865100Y+158900D01*
X+2865100Y+204620D02*
X+2865100Y+219860D01*
X+2865100Y+260500D02*
X+2865100Y+285900D01*
X+2865100Y+346860D02*
X+2865100Y+362100D01*
X+2865100Y+402740D02*
X+2865100Y+417980D01*
X+2865100Y+458620D02*
X+2865100Y+473860D01*
X+2865100Y+524660D02*
X+2865100Y+555140D01*
X+2865100Y+611020D02*
X+2865100Y+626260D01*
X+2865100Y+671980D02*
X+2865100Y+687220D01*
X+2865100Y+712620D02*
X+2865100Y+727860D01*
X+2865100Y+768500D02*
X+2865100Y+793900D01*
X+2865100Y+829460D02*
X+2865100Y+859940D01*
X+2865100Y+915820D02*
X+2865100Y+931060D01*
X+2865100Y+1032660D02*
X+2865100Y+1068220D01*
X+2865100Y+1225700D02*
X+2865100Y+1240940D01*
X+2870180Y-699620D02*
X+2870180Y-684380D01*
X+2875260Y-770740D02*
X+2875260Y-755500D01*
X+2875260Y-699620D02*
X+2875260Y-684380D01*
X+2880340Y-770740D02*
X+2880340Y-750420D01*
X+2880340Y-704700D02*
X+2880340Y-689460D01*
X+2885420Y-770740D02*
X+2885420Y-745340D01*
X+2885420Y-714860D02*
X+2885420Y-689460D01*
X+2890500Y-765660D02*
X+2890500Y-694540D01*
X+2890500Y+1098700D02*
X+2890500Y+1210460D01*
X+2895580Y-760580D02*
X+2895580Y-699620D01*
X+2895580Y+1098700D02*
X+2895580Y+1210460D01*
X+2900660Y-750420D02*
X+2900660Y-709780D01*
X+2900660Y+1098700D02*
X+2900660Y+1210460D01*
D15*
X-2857760Y-1200000D02*
X-2837440Y-1180950D01*
X-2837440Y-1104750D01*
X-2857760Y-1085700D01*
X-2878080Y-1085700D01*
X-2898400Y-1104750D01*
X-2898400Y-1180950D01*
X-2918720Y-1200000D01*
X-2939040Y-1200000D01*
X-2959360Y-1180950D01*
X-2959360Y-1104750D01*
X-2939040Y-1085700D01*
M02*
