G04 PROTEUS GERBER X2 FILE*
%TF.GenerationSoftware,Labcenter,Proteus,8.17-SP2-Build37159*%
%TF.CreationDate,2024-06-14T20:57:10+00:00*%
%TF.FileFunction,Plated,1,2,PTH*%
%TF.FilePolarity,Positive*%
%TF.Part,Single*%
%TF.SameCoordinates,{55591e3b-a6ba-419d-b1af-bbe9e4acfd0b}*%
%FSLAX45Y45*%
%MOMM*%
G01*
%TA.AperFunction,ComponentDrill*%
%ADD18C,0.762000*%
%TD.AperFunction*%
D18*
X-254000Y-2286000D03*
X-254000Y-2032000D03*
X-254000Y-1778000D03*
X-254000Y-1524000D03*
X-254000Y-1270000D03*
X-254000Y-1016000D03*
X-254000Y-762000D03*
X-254000Y-508000D03*
X-254000Y-254000D03*
X-254000Y+0D03*
X-254000Y+254000D03*
X-254000Y+508000D03*
X-254000Y+762000D03*
X-254000Y+1016000D03*
X-254000Y+1270000D03*
X-254000Y+1524000D03*
X-254000Y+1778000D03*
X-254000Y+2032000D03*
X-254000Y+2286000D03*
X+2286000Y-2286000D03*
X+2286000Y-2032000D03*
X+2286000Y-1778000D03*
X+2286000Y-1524000D03*
X+2286000Y-1270000D03*
X+2286000Y-1016000D03*
X+2286000Y-762000D03*
X+2286000Y-508000D03*
X+2286000Y-254000D03*
X+2286000Y+0D03*
X+2286000Y+254000D03*
X+2286000Y+508000D03*
X+2286000Y+762000D03*
X+2286000Y+1016000D03*
X+2286000Y+1270000D03*
X+2286000Y+1524000D03*
X+2286000Y+1778000D03*
X+2286000Y+2032000D03*
X+2286000Y+2286000D03*
X-2413000Y+127000D03*
X-2413000Y-373000D03*
X-1397000Y+889000D03*
X-1143000Y+889000D03*
X-1778000Y+2286000D03*
X-762000Y+2286000D03*
X-1778000Y+1778000D03*
X-762000Y+1778000D03*
X-2286000Y+889000D03*
X-2286000Y+1905000D03*
X-2413000Y-1143000D03*
X-2413000Y-1643000D03*
X-2413000Y-2143000D03*
X-1524000Y-2413000D03*
X-1024000Y-2413000D03*
M02*
